<?xml version="1.0" encoding="UTF-8" standalone="no"?>
<!-- Created with Inkscape (http://www.inkscape.org/) -->

<svg
   id="Layer_1"
   xml:space="preserve"
   version="1.0"
   viewBox="0 0 446.379 412.104"
   sodipodi:docname="logo.svg"
   inkscape:version="1.2.1 (9c6d41e410, 2022-07-14)"
   inkscape:export-filename="logo.png"
   inkscape:export-xdpi="64.519165"
   inkscape:export-ydpi="64.519165"
   xmlns:inkscape="http://www.inkscape.org/namespaces/inkscape"
   xmlns:sodipodi="http://sodipodi.sourceforge.net/DTD/sodipodi-0.dtd"
   xmlns="http://www.w3.org/2000/svg"
   xmlns:svg="http://www.w3.org/2000/svg"
   xmlns:rdf="http://www.w3.org/1999/02/22-rdf-syntax-ns#"
   xmlns:cc="http://creativecommons.org/ns#"
   xmlns:dc="http://purl.org/dc/elements/1.1/"><defs
   id="defs136" /><sodipodi:namedview
   id="namedview134"
   pagecolor="#ffffff"
   bordercolor="#666666"
   borderopacity="1.0"
   inkscape:showpageshadow="2"
   inkscape:pageopacity="0.0"
   inkscape:pagecheckerboard="0"
   inkscape:deskcolor="#d1d1d1"
   showgrid="false"
   inkscape:zoom="1.16988"
   inkscape:cx="379.52609"
   inkscape:cy="239.34078"
   inkscape:window-width="1920"
   inkscape:window-height="1011"
   inkscape:window-x="0"
   inkscape:window-y="0"
   inkscape:window-maximized="1"
   inkscape:current-layer="Ebene_x0020_1" />
<g
   id="g5">
	
	
	
	
	
	
	<g
   id="Ebene_x0020_1"
   transform="translate(294.12899,-107.55415)"
   inkscape:label="Ebene 1"
   inkscape:groupmode="layer"><metadata
     id="CorelCorpID_0Corel-Layer" /><g
     id="_198302696"
     transform="matrix(0.52931863,0,0,0.62459887,-219.391,122.39223)"><path
       d="m 82.6262,243.321 c 0,0 -11.9391,7.2672 8.30525,9.34351 24.3967,3.11437 37.3741,2.59576 64.3663,-2.59534 0,0 7.2672,4.67165 17.1297,8.30546 -60.7327,25.9542 -137.557,-1.5577 -89.8013,-15.0536 z m -7.78643,-33.7402 c 0,0 -12.9769,9.86233 7.2672,11.9386 26.4735,2.59576 47.2368,3.11437 83.0534,-4.15263 0,0 4.67186,5.19089 12.4579,7.78643 -73.1906,21.8016 -155.206,2.07631 -102.778,-15.5725 z m 143.267,59.1754 c 0,0 8.82449,7.26741 -9.86254,12.9769 -34.7787,10.3818 -145.863,13.4961 -177.008,0 -10.9006,-4.67144 9.86275,-11.4198 16.6105,-12.4579 6.74817,-1.55708 10.3816,-1.55708 10.3816,-1.55708 -11.9384,-8.30546 -79.4195,17.1295 -34.2595,24.3967 124.061,20.2443 226.321,-8.82428 194.137,-23.3587 z M 88.33577,174.283 c 0,0 -56.5799,13.4961 -20.2439,18.1678 15.5725,2.0761 46.1983,1.5575 74.7481,-0.51903 23.3585,-2.07631 46.7176,-6.22894 46.7176,-6.22894 0,0 -8.30546,3.63339 -14.0156,7.26741 -57.6179,15.053 -168.183,8.30504 -136.519,-7.26741 26.9923,-12.9773 49.3125,-11.4198 49.3125,-11.4198 z m 101.222,56.5799 c 58.1372,-30.1069 31.1451,-59.1754 12.4579,-55.5416 -4.67186,1.03805 -6.74817,2.07631 -6.74817,2.07631 0,0 1.55729,-3.11457 5.19068,-4.15263 36.8552,-12.9773 65.9238,38.9309 -11.9384,59.1752 0,0 0.51861,-0.51903 1.03805,-1.55729 z m -95.5117,82.0153 c 56.0613,3.63381 141.71,-2.07631 143.786,-28.5494 0,0 -4.15242,10.3818 -46.1981,18.1676 -47.7558,8.8247 -106.931,7.78643 -141.71,2.07631 0,0 7.26699,6.22915 44.122,8.30546 z"
       id="_227268128"
       style="fill:#4e7896" /><path
       d="m 154.26,2.98539 c 0,0 32.1832,32.7022 -30.6261,82.0153 -50.3512,39.9692 -11.4198,62.8088 0,88.7629 -29.5878,-26.4728 -50.8702,-49.8319 -36.336,-71.6335 21.2828,-32.1832 79.939,-47.7554 66.9621,-99.1446 z m -16.6105,148.977 c 15.053,17.1299 -4.15283,32.7026 -4.15283,32.7026 0,0 38.4121,-19.7253 20.7633,-44.1224 -16.0919,-23.3585 -28.5498,-34.7783 38.9311,-73.7098 0,0 -106.412,26.4735 -55.5416,85.1297 z"
       id="_230367536"
       style="fill:#f58219"
       sodipodi:nodetypes="ccccsccccccc" /></g></g><path
   id="path19"
   style="stroke:#000000;stroke-width:.036;stroke-miterlimit:10;fill-rule:evenodd"
   d="m179.35 254.15c12.67-26.77 26.77-47.41 42.7-63.04 15.73-15.83 34.02-24.21 52.11-30.24 17.57-6.23 32.89-8.27 54.24-6.13 21.26 2.05 55.17 5.01 72.54 18.8 16.86 13.59 24.21 38.01 29.12 62.22 4.8 23.8 10.01 59.87-0.92 79.79-11.34 19.61-48.63 30.34-66.61 37.29-18.5 6.44-32.08 7.25-42.3 2.04-3.47 0.41-7.15 2.04-10.62 4.5-3.78 2.45-7.36 5.72-11.14 10.21-3.47 1.43-6.03 1.84-8.48 0.82-2.25-1.02-4.39-3.47-5.62-6.95-4.49 2.05-7.76 2.86-11.03 2.05-3.27-0.82-5.72-3.27-7.76-6.95-5.11 4.29-9.1 5.01-12.37 3.27-3.27-1.84-5.82-7.25-7.25-15.12h-38.01c-9.5-30.85-19-61.71-28.6-92.56z" />
	<path
   id="path21"
   style="fill-rule:evenodd;stroke:#000000;stroke-width:.036;stroke-miterlimit:10;fill:#a16121"
   d="m235.23 182.94c5.11 1.64 10.22 4.7 16.55 9.2 6.23 4.08 15.43 16.24 19.72 17.16 3.68 0.41 3.98-4.9 3.27-12.36-0.72-7.46-2.96-17.68-7.15-31.47-5.93 2.05-11.24 5.01-16.76 7.77-5.41 3.06-10.62 5.92-15.63 9.7z" />
	<path
   id="path23"
   style="fill-rule:evenodd;stroke:#000000;stroke-width:.036;stroke-miterlimit:10;fill:#a16121"
   d="m281 161.59c0.82 1.53 3.17 4.9 6.64 8.99 3.27 4.09 11.14 15.02 14.2 16.24 2.66 1.02 2.04-5.1 3.68-10.11 1.53-5.21 3.16-12.16 5.31-20.84-6.33 0.71-11.95 2.04-16.85 2.86-5.11 0.71-9.3 2.04-12.98 2.86z" />
	<path
   id="path25"
   style="fill-rule:evenodd;stroke:#000000;stroke-width:.036;stroke-miterlimit:10;fill:#a16121"
   d="m320.33 157.4c7.77 0 14.41 0.51 21.05 1.12 6.23 0.41 11.95 1.33 17.16 2.35-5.62 6.85-10.93 14.21-16.34 22.48-5.72 8.27-11.86 26.67-15.63 26.36-3.58-1.13-5.73-21.76-6.44-30.75-1.23-8.58-1.02-16.14 0.2-21.56z" />
	<path
   id="path27"
   style="fill-rule:evenodd;stroke:#000000;stroke-width:.036;stroke-miterlimit:10;fill:#a16121"
   d="m362.83 161.59c6.95 0.92 13.18 2.45 18.29 4.19 5.21 1.84 8.89 3.88 12.26 6.54-12.98 10.83-22.07 16.86-27.28 18.08-5.41 1.02-3.78-6.33-4.18-11.03-0.72-4.91-0.42-10.83 0.91-17.78z" />
	<path
   id="path29"
   style="fill-rule:evenodd;stroke:#000000;stroke-width:.036;stroke-miterlimit:10;fill:#a16121"
   d="m332.08 225.95c-3.47 0.82-6.84 2.15-10.11 4.39-3.68 2.15-7.15 4.81-10.01 8.38-2.66 3.58-4.8 7.56-6.44 12.77-2.25 4.91-4.5 10.32-5.52 16.65-1.33 6.24-1.12 14.72-0.51 20.75 0.92 5.72 2.25 10.11 5.11 13.58 14.3-7.76 22.58-13.07 25.23-17.16 2.35-4.09-5.61-4.7-9.7-6.54-4.19-2.15-9.5-3.78-15.53-5.31 4.49-1.12 10.11-2.15 16.45-2.66 6.23-0.82 20.53 0.31 21.65-1.33 0.72-1.83-10.82-5.82-16.14-9.6-5.52-3.88-10.72-8.58-16.04-13.69 12.98 2.96 21.56 3.98 25.75 2.66 4.08-1.54-0.41-6.75-0.92-10.53-0.71-3.67-1.94-8.17-3.27-12.36z" />
	<path
   id="path31"
   style="fill-rule:evenodd;stroke:#000000;stroke-width:.036;stroke-miterlimit:10;fill:#a16121"
   d="m423.93 217.88c1.84 7.25 3.27 13.38 4.29 19.51 1.02 5.93 1.63 11.14 1.84 16.04-5.82 0-12.77 0.21-20.84 0.21-8.48 0-27.18 2.24-28.51-0.41-1.63-3.27 12.98-12.16 20.23-17.98 7.15-5.82 14.82-11.75 22.99-17.37z" />
	<path
   id="path33"
   style="fill-rule:evenodd;stroke:#000000;stroke-width:.036;stroke-miterlimit:10;fill:#a16121"
   d="m430.88 255.27c-4.5 3.68-9.71 6.85-15.23 10.32-5.92 3.17-18.9 6.64-18.39 9.19 0.21 2.05 15.12 3.28 21.15 4.81 5.83 1.43 10.63 2.75 14.41 3.98 0.2-3.58 0.2-7.66 0-12.26-0.21-4.8-1.23-10.01-1.94-16.04z" />
	<path
   id="path35"
   style="fill-rule:evenodd;stroke:#000000;stroke-width:.036;stroke-miterlimit:10;fill:#a16121"
   d="m433.12 291.44c-4.39 0.82-8.38 1.84-11.95 2.66-4.09 0.81-9.71 0.5-10.11 2.24-0.52 1.33 5.41 3.88 8.27 6.54 2.86 2.25 5.62 5.42 8.69 8.38 1.22-4.91 2.45-8.99 3.26-12.26 0.82-3.47 1.43-5.72 1.84-7.56z" />
	<path
   id="path37"
   style="fill-rule:evenodd;stroke:#000000;stroke-width:.036;stroke-miterlimit:10;fill:#ffc080"
   d="m316.45 321.78c-9.5-0.51-17.77-0.51-25.23 0-7.56 0.51-13.59 1.02-19.21 3.07-6.13 1.83-11.03 4.39-15.12 8.07-4.5 3.27-7.25 7.86-8.28 12.15-0.81 4.09 2.25 9.91 4.09 12.36 1.84 1.95 3.47 1.74 6.03 1.33 2.25-0.51 3.78-1.33 7.35-3.68 3.48-2.86 7.77-6.64 13.28-12.15-2.04 4.29-4.18 7.86-6.02 10.32-1.84 2.35-3.78 3.98-5.42 4.49 0.62 1.84 1.64 3.27 3.48 4.29 1.63 0.82 4.19 1.33 6.84 1.13 2.25-0.62 4.9-1.54 7.97-3.58 2.96-2.35 6.03-5.41 9.61-9.6 0 0-1.84 5.41-4.19 8.58-2.25 3.06-4.91 3.78-4.91 3.78 2.76 4.29 5.42 6.33 7.97 6.54 2.35-0.31 3.58-3.27 7.25-6.13 3.58-2.97 12.37-8.07 14.21-11.04 1.32-3.37-1.95-5.11-4.7-7.97-2.76-3.27-11.55-9.09-11.45-9.6 0-0.51 7.26 2.96 11.14 6.44 3.68 2.86 7.15 6.84 10.83 11.54 4.7 2.76 10.52 4.3 17.47 3.78 6.84-0.51 12.98-2.65 23.91-6.43 10.93-4.09 29.11-10.53 40.35-16.56 10.73-6.02 18.49-12.77 23.7-19.82-10.01-7.15-16.14-12.25-17.98-15.73-1.73-3.78 2.15-4.08 6.54-5.31 4.09-1.33 9.4-2.25 17.16-2.35l0.82-4.6c-9.5-1.74-17.67-3.37-24.11-4.9-6.84-1.74-13.79-3.27-15.33-5.01-1.73-1.94 1.23-3.06 6.95-6.13 5.62-3.27 14.92-7.66 27.48-13.18-10.72 0.31-20.02 0.51-28.29 0.62-8.58 0-18.6 1.32-21.36-0.42-2.86-1.93-3.06-4.59 4.5-11.13 7.46-6.85 20.23-16.65 39.43-29.42-2.86-7.56-5.82-13.9-8.48-19.41-2.86-5.62-5.1-9.71-7.96-13.49-3.17-3.88-6.75-7.05-10.73-9.5-7.77 7.25-14 12.46-19.82 15.63-6.03 3.27-11.55 4.7-14.2 3.07-2.66-2.25-1.84-11.14-1.94-15.63-0.41-5.01-0.41-9.1 0-13.08-4.81 5.92-9.5 12.56-14.1 20.33-4.7 7.76-10.22 20.64-13.8 25.23-3.98 3.99-7.66 3.68-9.5 0.31-2.24-3.57-2.86-12.16-3.47-20.64-0.92-8.68-1.43-19-1.53-30.95l-5.42-0.31c-0.81 6.64-1.84 12.77-3.06 18.8-1.43 5.82-2.56 14.4-4.6 16.24-2.25 1.23-4.09-2.04-8.27-7.05-4.4-5.1-10.42-12.66-18.09-23.08l-7.25 2.65c3.06 12.16 5.11 21.97 5.72 29.83 0.51 7.87-0.1 14.41-1.84 16.86-2.04 1.94-5.82-0.61-10.21-3.78-5.01-3.27-12.16-11.44-17.48-15.02-5.41-4.08-10.01-6.33-14.2-7.86-8.07 6.64-15.01 13.38-21.24 21.35-6.44 7.56-11.65 16.34-16.45 24.82-4.91 8.28-8.89 16.35-12.36 24.62l27.58 88.78c4.7-0.81 10.32-1.53 16.04-1.32 5.62-0.21 12.16 0.51 18.8 1.32 0.71-3.88 2.76-7.56 6.95-11.03 4.08-3.78 10.52-7.56 16.95-10.11 6.23-2.56 13.08-4.81 20.13-5.21 6.74-0.82 13.79-0.42 20.74 0.81-4.19-5.51-7.56-11.75-9.71-18.69-2.35-7.05-3.98-16.25-3.78-23.3 0-7.25 1.13-13.58 3.78-20.22 2.15-7.26 5.21-15.74 11.14-21.46 5.93-6.03 15.02-11.54 24.52-13.38 9.19-1.94 19.2-1.54 30.45 1.63-7.57-0.51-13.9-0.41-19.42-0.1-5.41 0.41-10.01 1.02-13.38 2.25 1.63 4.9 3.17 8.99 4.19 13.38 1.12 4.19 3.27 9.3 2.04 11.75-1.84 1.73-7.56 1.12-11.24 0.92-4.19-0.61-9.29-1.74-11.34-2.25-1.94-0.41-1.94-0.41 0 0 1.94 2.56 5.62 5.21 10.63 8.79 5 3.57 17.47 8.68 19.2 11.44 1.13 2.04-7.46 2.55-11.13 3.06-3.99 0.31-7.67 0.41-11.85 0.72-4.09 0.41-8.59 0.31-13.08 0.81 7.56 1.54 13.18 2.97 16.86 4.7 3.47 1.54 5 3.28 5 5.22 0.1 1.53-0.51 2.24-4.6 5.72-4.59 3.57-11.64 8.58-21.96 15.42-0.2 1.74 0.61 3.99 2.45 6.75 1.53 2.76 4.19 5.93 7.56 9.91z" />
	<path
   id="path39"
   style="stroke:#000000;stroke-width:.036;stroke-miterlimit:10;fill-rule:evenodd"
   d="m175.67 199.39c0.61-3.17 3.17-7.05 7.66-11.65 4.29-5.1 11.96-11.24 18.7-16.04 6.54-4.8 14.4-9.29 20.84-12.26 6.03-3.37 11.44-5.2 15.83-6.64 4.19-1.63 7.26-3.16 10.02-1.84 2.65 1.03 4.39 3.68 6.43 9.1 1.64 5.31 3.58 14.81 4.7 22.98 0.92 8.18 1.53 17.58 1.43 25.03-0.1 6.85-0.51 13.49-1.63 17.98-1.13 4.4-2.25 7.05-4.91 9.1-2.96 1.83-6.94 2.35-12.36 1.94-6.44-10.93-14.71-19.52-25.95-25.75-11.24-6.33-24.82-10.32-40.76-11.95z" />
	<path
   id="path41"
   style="fill-rule:evenodd;stroke:#000000;stroke-width:.036;stroke-miterlimit:10;fill:#ffc080"
   d="m178.53 197.76c1.23-2.15 2.66-4.5 4.7-6.65 1.84-2.45 4.09-4.69 6.74-7.15 0.82 0 2.56 0.62 4.8 1.02 2.25 0.62 5.01 1.03 8.69 2.05-2.15 1.12-4.5 2.35-6.23 4.8-1.84 2.35-3.89 4.8-5.31 8.48-3.58-0.72-6.65-1.23-8.79-1.53-2.35-0.51-3.88-0.72-4.6-1.02z" />
	<path
   id="path43"
   style="fill-rule:evenodd;stroke:#000000;stroke-width:.036;stroke-miterlimit:10;fill:#a16121"
   d="m207.04 169.97c-3.79 2.65-6.75 5.21-9.3 7.25-2.66 1.94-4.8 3.68-6.44 5.21 1.64 0.1 3.68 0.41 6.13 0.92s4.7 0.82 7.87 1.74c0.71-0.62 1.32-1.03 2.24-1.64 0.72-0.71 1.64-1.23 2.76-1.94-0.92-2.55-1.63-4.6-2.14-6.54-0.72-2.04-0.82-3.57-1.12-5z" />
	<path
   id="path45"
   style="fill-rule:evenodd;stroke:#000000;stroke-width:.036;stroke-miterlimit:10;fill:#ffc080"
   d="m213.47 166.29c-1.43 0.51-2.35 1.23-3.17 1.74-0.81 0.51-1.43 0.91-1.84 1.22 0.31 1.33 0.41 2.76 1.13 4.7 0.51 1.74 1.23 3.68 2.14 5.83 1.64-1.03 3.58-2.15 5.01-2.97 1.33-0.92 2.56-1.53 4.09-2.25 1.43-0.91 3.37-1.73 5.41-2.45-1.74-1.22-3.16-1.84-5.41-2.96-2.25-0.82-4.7-2.15-7.36-2.86z" />
	<path
   id="path47"
   style="fill-rule:evenodd;stroke:#000000;stroke-width:.036;stroke-miterlimit:10;fill:#a16121"
   d="m215.92 164.96c1.94-1.74 4.7-2.86 7.87-4.5 3.16-1.73 7.86-3.37 10.93-4.49 2.66-1.43 4.5-1.63 6.33-2.15 1.95-0.71 3.07-0.81 4.5-1.12-1.94 2.04-3.98 3.58-5.72 5.72-1.84 1.84-3.89 3.78-5.01 5.82-1.23 1.64-2.66 4.4-3.17 5.52-1.02 1.02-1.02 0.92-1.94 0.82-1.43-0.51-2.96-1.53-4.59-2.25-1.64-0.61-3.17-1.33-4.6-1.73-1.63-0.41-3.17-1.33-4.6-1.64z" />
	<path
   id="path49"
   style="fill-rule:evenodd;stroke:#000000;stroke-width:.036;stroke-miterlimit:10;fill:#ffc080"
   d="m247.49 153.11c-2.35 1.94-4.19 3.78-5.93 5.52-1.84 1.63-3.16 3.16-4.39 5-1.23 1.74-2.35 3.78-2.96 5.72 1.73-0.71 3.27-1.02 4.6-0.91 1.22-0.11 1.53 0.2 2.55 0.91 0.71 0.72 1.64 1.64 2.35 3.17 0.61 1.23 1.02 2.66 1.64 4.29 0.81-2.25 1.53-4.09 2.55-5.52 0.71-1.73 1.63-2.55 2.76-3.57 1.02-1.12 2.25-1.94 3.68-2.86-1.03-3.88-1.74-6.74-2.97-8.58-1.32-1.84-2.35-3.27-3.88-3.17z" />
	<path
   id="path51"
   style="fill-rule:evenodd;stroke:#000000;stroke-width:.036;stroke-miterlimit:10;fill:#a16121"
   d="m254.74 166.49c-1.84 1.43-3.47 3.07-4.9 5.32-1.64 2.14-2.66 4.49-3.88 7.45 0.4 1.33 0.31 2.76 0.81 4.3 0 1.22 0.62 2.55 0.72 3.98 2.25 1.33 4.49 2.55 6.33 3.68 1.84 1.12 3.27 2.04 4.7 3.16-0.4-4.9-0.71-9.29-0.92-12.77-0.3-3.78-0.81-6.33-1.12-8.78-0.51-2.45-1.22-4.7-1.74-6.34z" />
	<path
   id="path53"
   style="fill-rule:evenodd;stroke:#000000;stroke-width:.036;stroke-miterlimit:10;fill:#ffc080"
   d="m258.63 196.12l0.41 8.38c-1.34 0.81-3.17 1.73-4.7 2.75-1.74 0.82-3.58 1.95-5.52 2.97 0.3-4.5 0.2-8.07 0.1-11.55-0.2-3.47-0.41-6.43-1.02-8.88 2.15 1.02 4.29 2.25 6.03 3.27 1.83 0.92 3.27 1.94 4.7 3.06z" />
	<path
   id="path55"
   style="fill-rule:evenodd;stroke:#000000;stroke-width:.036;stroke-miterlimit:10;fill:#a16121"
   d="m259.24 206.13c-0.2 2.55-0.2 5.42-0.41 8.17-0.2 2.46-0.61 6.34-0.82 8.48-0.41 2.05-0.61 2.86-1.02 4.4-0.61 1.22-1.33 3.06-2.14 4.39l-8.18-8.17c0.62-2.15 1.13-4.09 1.53-5.83 0.31-1.94 0.52-3.27 0.62-4.8 1.53-0.81 2.86-1.74 4.8-2.75 1.53-1.03 3.68-2.46 5.62-3.89z" />
	<path
   id="path57"
   style="fill-rule:evenodd;stroke:#000000;stroke-width:.036;stroke-miterlimit:10;fill:#ffc080"
   d="m245.45 224.62c-0.41 0.72-1.23 1.23-2.45 1.94-1.23 0.52-3.17 0.82-5.42 1.33 1.33 1.43 2.25 2.35 3.17 3.89 0.81 1.22 1.63 2.55 2.04 3.98 1.53 0.41 2.86 0.41 4.8 0 1.74-0.41 3.68-1.64 5.83-2.86-2.76-2.45-4.6-4.8-5.93-5.93-1.33-1.63-2.14-2.04-2.04-2.35z" />
	<path
   id="path59"
   style="fill-rule:evenodd;stroke:#000000;stroke-width:.036;stroke-miterlimit:10;fill:#a16121"
   d="m236.05 225.95c2.65-0.41 4.59-1.33 6.23-2.35 1.43-1.22 2.04-2.04 2.96-4.8 0.72-3.48 1.43-8.07 1.74-12.98 0-5.1-0.1-10.31-0.72-15.62-1.02-5.32-2.24-12.26-3.68-15.33-1.53-3.17-3.16-3.88-5.31-3.68-2.65-0.31-5.72 0.51-9.6 2.45-4.29 1.54-9.5 4.6-14 7.67-4.59 2.75-9.6 6.94-12.26 9.4-2.75 1.94-2.35 3.06-3.47 4.49-1.33 1.43-2.55 3.17-3.68 4.8 4.9 1.54 9.61 2.86 14.1 4.8 4.29 1.53 8.38 3.27 12.26 5.62 3.78 2.35 7.86 5.72 10.73 8.48 2.55 2.56 3.98 4.9 4.7 7.05z" />
	<path
   id="path61"
   style="stroke:#000000;stroke-width:.036;stroke-miterlimit:10;fill-rule:evenodd"
   d="m207.65 168.64c-0.82-1.23-1.53-2.56-2.15-3.58-1.02-1.43-1.84-2.76-2.45-3.16-0.92-0.51-1.64-0.21-1.74 0.51-0.2 0.2 0 0.41 1.02 2.14 1.03 1.64 3.07 6.64 4.5 7.97 1.02 0.92 1.63-0.51 1.84-1.12 0.1-0.82-0.61-1.74-1.02-2.76z" />
	<path
   id="path63"
   style="stroke:#000000;stroke-width:.036;stroke-miterlimit:10;fill-rule:evenodd"
   d="m202.64 169.86c-1.02-1.02-2.25-1.73-3.27-2.55-1.53-0.92-2.55-2.15-3.47-2.15-1.13-0.1-1.43 0.41-1.33 1.13 0 0.31 0 0.31 1.63 1.63 1.54 1.33 5.32 5.01 6.95 5.93 1.13 0.71 1.43-1.33 1.33-1.74-0.41-0.82-1.02-1.43-1.84-2.25z" />
	<path
   id="path65"
   style="stroke:#000000;stroke-width:.036;stroke-miterlimit:10;fill-rule:evenodd"
   d="m253.11 157.09c1.02-0.61 1.84-1.32 3.57-1.73 1.44-0.82 4.7-1.53 5.83-2.15 1.12-1.12 1.63-1.63 0.71-1.94-1.53-0.2-5.1 0.41-7.56 1.43-2.45 0.92-6.02 2.86-6.84 4.19-0.92 1.02 0.61 2.04 1.43 2.25 0.71 0 1.53-1.74 2.86-2.05z" />
	<path
   id="path67"
   style="stroke:#000000;stroke-width:.036;stroke-miterlimit:10;fill-rule:evenodd"
   d="m254.44 162.92c0.82-0.41 1.73-1.33 3.16-1.64 1.54-0.71 3.78-1.33 5.11-1.84 1.02-0.92 1.23-1.63 0.62-1.73-1.23-0.1-4.5 0.2-6.65 1.33-2.24 0.51-5.31 2.65-6.02 3.67-0.82 0.62 0.4 2.05 1.32 1.94 0.62-0.3 1.44-1.02 2.46-1.73z" />
	<path
   id="path69"
   style="stroke:#000000;stroke-width:.036;stroke-miterlimit:10;fill-rule:evenodd"
   d="m104.87 200.92c-1.33-3.27-5.006-5.92-10.216-9.5-5.619-3.68-14.712-7.97-22.169-10.93-7.561-3.07-16.551-5.31-23.09-6.74-6.844-1.64-12.668-2.35-17.061-2.56-4.495-0.61-7.969-1.22-10.012 0.51-2.452 1.43-3.678 4.91-4.087 10.42-0.612 5.83 0 15.12 1.023 23.5 0.918 7.97 2.758 17.47 4.699 24.62 1.635 6.85 3.78 12.67 6.027 17.06 2.248 3.99 3.372 6.54 6.947 7.67 3.373 1.02 7.151 0.61 12.464-1.23 3.474-12.36 9.501-22.27 18.9-31.26 9.194-8.89 21.249-15.94 36.575-21.56z" />
	<path
   id="path71"
   style="fill-rule:evenodd;stroke:#000000;stroke-width:.036;stroke-miterlimit:10;fill:#ffc080"
   d="m101.7 200c-1.835-1.84-3.879-3.57-6.127-5.21-2.554-1.63-5.313-3.78-8.275-5.31-0.715 0.31-2.554 1.02-4.393 2.15-2.145 0.81-4.801 2.55-7.969 4.08 2.554 0.31 4.598 1.33 7.255 3.07 2.145 1.53 4.904 3.98 7.151 6.94 3.269-1.43 6.13-2.75 8.173-3.57 1.94-1.13 3.475-1.84 4.185-2.15z" />
	<path
   id="path73"
   style="fill-rule:evenodd;stroke:#000000;stroke-width:.036;stroke-miterlimit:10;fill:#a16121"
   d="m67.274 179.98c4.188 1.84 7.661 3.47 10.83 4.9 2.962 1.33 5.619 2.46 7.56 3.38-1.635 0.61-3.679 1.42-5.722 2.45-2.145 0.81-4.7 2.14-7.254 3.57-0.919-0.41-1.634-0.61-2.554-1.02-1.124-0.51-2.043-0.92-3.168-1.22 0.205-2.86 0.205-4.81 0.409-6.95-0.101-2.25 0-3.58-0.101-5.11z" />
	<path
   id="path75"
   style="fill-rule:evenodd;stroke:#000000;stroke-width:.036;stroke-miterlimit:10;fill:#ffc080"
   d="m60.224 178.04c1.431 0.2 2.453 0.51 3.474 0.92 0.818 0.3 1.635 0.41 2.044 0.71 0.103 1.43 0.103 3.07 0 4.91s-0.308 3.88-0.614 6.13c-2.042-0.72-3.881-1.13-5.517-1.64-1.736-0.51-2.86-0.92-4.495-1.23-1.838-0.5-3.678-0.71-5.925-1.02 1.021-1.53 2.656-2.96 4.495-4.29 1.838-1.43 3.882-3.06 6.538-4.49z" />
	<path
   id="path77"
   style="fill-rule:evenodd;stroke:#000000;stroke-width:.036;stroke-miterlimit:10;fill:#a16121"
   d="m57.466 177.32c-2.452-1.02-5.21-1.84-8.684-2.45-3.781-0.61-8.479-1.43-11.75-1.63-2.859-0.41-5.21-0.62-6.64-0.62-1.941-0.2-3.474-0.2-4.598 0 2.351 1.33 4.496 2.76 6.846 4.29 2.042 1.33 4.29 2.76 6.333 4.29 1.533 1.33 3.372 3.68 4.393 4.7 0.817 0.62 1.022 0.72 2.146 0.31 0.919-0.61 2.349-2.65 3.881-3.37 1.329-1.12 2.554-1.94 4.086-2.86 1.228-0.92 2.557-1.94 3.987-2.66z" />
	<path
   id="path79"
   style="fill-rule:evenodd;stroke:#000000;stroke-width:.036;stroke-miterlimit:10;fill:#ffc080"
   d="m23.956 173.54c2.554 1.43 4.904 2.35 7.049 3.88 2.145 0.92 3.882 2.46 5.619 3.78 1.533 1.54 3.065 2.86 4.189 4.81-2.043-0.11-3.474 0-4.699 0.3-1.432 0.11-1.533 0.62-2.248 1.53-0.716 0.72-1.226 2.05-1.533 3.58-0.409 1.43-0.614 2.66-0.614 4.5-1.328-1.94-2.554-3.48-3.677-4.6-1.328-1.12-2.554-2.45-3.678-2.86-1.329-0.82-2.86-1.43-4.189-1.84-0.203-3.98 0.204-6.84 0.818-8.99 0.511-2.35 1.634-3.58 2.963-4.09z" />
	<path
   id="path81"
   style="fill-rule:evenodd;stroke:#000000;stroke-width:.036;stroke-miterlimit:10;fill:#a16121"
   d="m20.175 188.25c1.941 0.92 4.087 2.25 6.028 3.99s3.78 3.68 5.516 6.23c0 1.53 0.103 2.86 0.308 4.39 0 1.43 0.101 2.66 0.306 4.09-2.146 1.94-3.882 3.37-5.211 5.11-1.634 1.63-2.757 2.75-3.779 4.18-1.124-4.9-1.737-9.09-2.248-12.56-0.717-3.78-0.92-6.33-1.022-8.79-0.203-2.55-0.306-4.9 0.102-6.64z" />
	<path
   id="path83"
   style="fill-rule:evenodd;stroke:#000000;stroke-width:.036;stroke-miterlimit:10;fill:#ffc080"
   d="m23.649 217.88l1.634 8.28c1.737 0.41 3.371 0.92 5.313 1.53 1.839 0.41 3.985 0.92 6.027 1.53-1.328-4.19-2.145-7.76-2.86-11.13-0.817-3.68-1.227-6.13-1.227-8.89-1.941 1.63-3.78 3.06-5.107 4.7-1.635 1.42-2.758 2.76-3.78 3.98z" />
	<path
   id="path85"
   style="fill-rule:evenodd;stroke:#000000;stroke-width:.036;stroke-miterlimit:10;fill:#a16121"
   d="m25.488 227.89c0.613 2.56 1.533 5.01 2.35 7.77 0.919 2.55 1.736 5.72 2.86 7.97 0.817 1.93 1.021 2.65 2.145 4.08 0.715 1.33 2.043 2.45 3.167 3.78l5.823-9.91c-1.021-1.84-2.248-3.88-2.86-5.31-0.817-1.84-1.43-3.07-1.838-4.49-1.635-0.42-3.372-0.92-5.21-1.54-2.044-0.81-4.189-1.33-6.437-2.35z" />
	<path
   id="path87"
   style="fill-rule:evenodd;stroke:#000000;stroke-width:.036;stroke-miterlimit:10;fill:#ffc080"
   d="m43.367 242.4c0.306 0.51 1.533 0.92 2.862 1.23 1.327 0.1 3.166 0.1 5.516 0-1.021 1.63-1.43 2.75-2.044 4.49-0.714 1.23-0.816 3.07-1.123 4.39-1.328 0.82-2.86 1.23-4.597 1.23-2.044-0.2-3.78-0.51-6.334-1.33 2.043-3.37 3.372-5.52 4.393-7.25 1.02-1.74 1.327-2.66 1.327-2.76z" />
	<path
   id="path89"
   style="fill-rule:evenodd;stroke:#000000;stroke-width:.036;stroke-miterlimit:10;fill:#a16121"
   d="m52.869 241.38c-2.554 0.2-4.904 0.1-6.64-0.72-1.738-0.92-2.963-1.43-4.086-3.88-1.533-3.06-3.679-7.66-4.803-12.26-1.43-5-2.757-10.11-3.166-15.32-0.818-5.52-0.715-12.26-0.103-15.84 0.613-3.47 1.635-4.29 4.189-4.8 2.35-0.82 5.516-0.82 9.909 0 4.189 0.51 10.422 2.25 15.529 4.09 5.21 1.53 10.42 4.49 14.1 6.13 2.962 1.22 2.757 2.24 4.495 3.47 1.533 1.23 2.962 2.35 4.699 3.78-4.699 2.55-8.479 5.41-12.464 8.17-3.983 2.76-7.355 4.9-10.522 8.38-3.269 3.37-6.538 7.36-8.276 10.83-1.738 3.06-3.066 5.72-2.861 7.97z" />
	<path
   id="path91"
   style="stroke:#000000;stroke-width:.036;stroke-miterlimit:10;fill-rule:evenodd"
   d="m75.855 183.35c0.51-1.02 1.124-2.55 2.248-3.47 0.612-1.43 1.838-2.76 2.554-3.17 0.306-0.61 1.635 0 1.635 0.61 0.204 0.21-0.409 0.41-1.022 2.15-1.021 1.63-3.78 6.33-4.699 7.76-1.124 1.03-1.839-0.71-1.736-1.22-0.309-0.92 0.305-1.54 1.02-2.66z" />
	<path
   id="path93"
   style="stroke:#000000;stroke-width:.036;stroke-miterlimit:10;fill-rule:evenodd"
   d="m80.862 184.68c0.612-0.92 2.145-1.74 3.37-2.45 1.125-1.02 2.555-1.84 3.474-2.05 0.817-0.1 1.124 0.41 1.329 1.13-0.205 0.3-0.409 0.3-1.738 1.63-1.839 1.23-5.516 4.7-7.049 5.72-1.431 0.41-1.736-1.22-1.328-1.73 0.001-0.82 0.92-1.43 1.942-2.25z" />
	<path
   id="path95"
   style="stroke:#000000;stroke-width:.036;stroke-miterlimit:10;fill-rule:evenodd"
   d="m20.891 206.54c-1.021 0.2-1.941 0.92-2.759 1.74-1.328 0.61-2.86 2.55-3.78 3.06-1.122 0.41-2.246 0.31-1.736-0.3 0.102-1.02 2.554-3.48 4.188-4.6 1.533-1.43 4.495-2.76 5.722-2.86 0.817-0.2 1.124 1.22 0.918 1.94-0.715 0.3-1.429 0.51-2.553 1.02z" />
	<path
   id="path97"
   style="stroke:#000000;stroke-width:.036;stroke-miterlimit:10;fill-rule:evenodd"
   d="m24.16 209.91c-1.021 0.31-1.43 0.82-2.349 1.53-1.329 0.41-2.453 2.36-3.371 2.66-1.124 0.31-1.737 0.2-1.43-0.3 0.204-1.13 2.043-2.87 3.575-3.99 1.532-1.53 3.78-2.25 5.108-2.56 0.714-0.1 1.124 1.13 0.817 1.74-0.51 0.41-1.43 0.21-2.35 0.92z" />
	<path
   id="path99"
   style="stroke:#000000;stroke-width:.036;stroke-miterlimit:10;fill-rule:evenodd"
   d="m32.64 247c-1.022 0.71-2.248 1.53-3.269 2.45-1.533 0.61-2.555 1.84-3.474 2.14-1.021 0-1.635-0.92-1.43-1.22-0.103-0.72 0.204-0.31 1.736-1.53 1.43-1.54 5.516-4.91 7.151-5.73 0.92-0.71 1.328 0.92 1.227 1.74-0.205 0.61-1.226 1.33-1.941 2.15z" />
	<path
   id="path101"
   style="stroke:#000000;stroke-width:.036;stroke-miterlimit:10;fill-rule:evenodd"
   d="m136.44 192.65c-6.34 0.92-10.73 1.43-15.53 1.94-4.9 0.1-8.38-0.41-13.59 0-5.92 0.1-12.666-0.31-19.409 1.94-6.743 2.14-14.712 7.05-19.616 11.13-4.904 3.68-7.356 6.13-10.522 11.75-3.576 5.72-7.355 13.28-10.217 21.56-3.268 7.97-6.437 16.35-8.377 25.54-2.451 8.69-3.882 17.47-3.882 26.77-0.102 8.99 1.124 18.28 4.496 27.07 3.268 8.58 6.64 16.86 15.63 23.7 8.582 6.23 24.417 11.55 36.881 14.72 12.156 2.85 22.986 3.26 37.596 3.57 14.71 0.1 33.82 0 49.86-2.66 15.73-3.16 33-8.07 44.74-14.71 11.55-6.84 18.19-16.65 24.32-25.54 5.72-9.3 8.99-19 11.44-29.11 2.25-10.32 4.9-20.75 3.58-31.27-1.44-10.73-5.52-22.17-11.45-31.57-6.33-9.5-14.5-17.98-24.92-24.31-10.53-6.85-26.16-11.44-37.5-13.79-11.65-2.56-23.19-0.72-31.87 0-9.1 0.3-15.53 2.45-21.66 3.27z" />
	<path
   id="path103"
   style="fill-rule:evenodd;fill:#ffc080"
   d="m62.268 216.55c-0.817 0.51-1.329 1.64-1.941 2.55-0.613 1.13-1.328 2.05-1.736 3.58 1.021 2.25 2.86 4.6 5.517 7.46 2.554 2.66 8.173 6.74 9.808 9.09 1.328 2.05-0.511 2.86-2.35 4.09-2.554 0.92-5.925 1.94-10.114 3.06-4.189 0.82-8.99 1.84-14.813 2.66-0.308 0.51-0.717 1.63-1.227 2.96-0.511 1.33-1.226 3.27-1.737 5.42 1.941 1.73 4.394 3.78 6.948 5.31 2.35 1.43 5.21 3.17 8.173 4.39 2.861 1.02 7.458 1.94 8.684 3.17 1.021 1.13 0.205 2.35-2.86 4.8-3.474 2.66-12.157 6.75-16.55 9.91-4.7 2.76-7.866 5.21-10.319 6.95-0.306 0.31-0.306 1.23-0.409 1.94-0.102 0.71 0 1.64 0.307 2.76 3.372 1.84 7.152 2.86 11.34 3.88 3.883 0.51 9.195 0.92 13.179 1.23 3.883 0.1 9.093 0.3 10.523 1.43 0.92 0.92-2.043 3.47-3.372 5.72-1.225 2.04-2.758 3.57-5.414 8.17-3.168 4.6-7.357 10.83-12.976 19.11 0.511 0.71 1.123 1.53 1.838 2.45 0.715 0.71 1.329 1.53 2.248 2.45 5.415-0.92 10.42-1.84 15.426-3.57 4.904-1.74 10.319-4.81 13.895-6.44 3.167-1.74 4.801-4.7 6.539-4.19 1.533 0 1.736 1.64 3.372 5.31 1.43 3.48 3.474 10.93 5.313 15.63 1.63 4.4 3.06 7.77 4.7 10.53 1.02 0.41 2.45 0.71 4.29 0.92 1.74 0.2 3.58 0.3 5.93 0.3 2.76-2.45 5.1-4.9 7.46-8.48 2.24-3.57 4.08-9.8 5.92-12.05 1.33-2.45 2.04-2.76 3.68-2.15 1.02 0.31 2.45 1.74 5.11 4.29 2.76 2.35 7.97 6.75 12.05 10.01 4.09 3.17 7.56 5.52 11.65 8.18 1.12 0.1 2.76-0.31 5.31-0.41 2.45-0.31 5.42-0.72 9.3-1.23 1.12-3.98 1.84-7.76 2.55-11.74 0.31-4.19 0.41-9.51 1.13-12.06 0.51-2.76 1.02-3.37 3.16-3.37 1.84-0.11 3.88 1.32 8.89 3.06 4.6 1.64 15.12 4.19 20.53 6.13 5.32 1.64 9 2.46 11.45 3.27 0.3-0.2 0.41-0.41 1.43-1.02 0.92-0.61 1.63-1.33 3.27-2.15-1.23-3.47-2.86-7.25-4.5-12.46-1.73-5.21-5.31-13.9-6.03-17.78-0.91-3.98-1.02-5.41 0.11-5.92 0.81-1.02 2.76 0.3 5.82 1.22 3.07 0.92 7.35 2.76 12.06 4.4 4.29 1.33 9.5 2.55 14.81 3.67 1.12-1.63 2.04-3.37 2.76-5.21 0.71-2.04 1.02-4.18 1.33-6.43-5.11-4.09-9.81-8.07-14.1-11.95-4.8-4.09-10.53-9.3-12.06-11.75-1.33-2.97 0.82-2.87 3.68-3.58 2.45-0.61 7.25 0.2 11.24 0.1 3.57-0.1 7.46-1.43 10.83-1.63 3.16-0.41 5.82-1.33 8.38-1.64 0.71-2.65 0.61-5.1 0.5-7.76-0.3-2.66-1.02-5.52-2.14-8.17-5.82-0.92-10.11-1.54-14-2.66-3.98-1.02-7.35-2.25-8.48-3.68-1.22-1.94 0.11-3.68 2.05-7.56 1.84-4.09 4.39-9.19 8.48-15.73-0.61-1.23-1.13-1.84-1.53-2.66-0.52-0.92-1.23-1.22-1.74-1.74-0.92 1.74-3.78 3.17-8.58 3.89-5.11 0.51-16.35 1.33-20.33 0.92-4.19-0.82-3.68-1.53-3.58-4.09-0.2-2.76 2.05-7.15 2.86-10.83 0.72-3.88 1.43-7.15 1.74-10.93-0.61-0.51-0.92-0.92-1.74-1.23-0.61-0.51-1.73-0.91-2.55-1.22-5.42 2.66-10.32 5.21-14.71 7.66-4.81 2.45-8.69 5.21-12.06 6.74-3.37 1.02-5.62 1.43-7.15 0-1.74-1.83-1.33-6.33-2.35-9.91-1.13-3.47-3.07-7.76-5.01-11.74l-4.49 0.61c-2.05 2.35-3.99 4.9-5.83 7.66-2.04 2.55-3.98 5.41-5.41 8.17-1.84 2.66-2.76 6.54-3.98 8.07-1.33 1.23-2.35 1.02-3.89-0.61-1.73-2.14-3.98-8.58-5.92-11.44-2.15-3.17-4.9-6.13-6.34-6.54-1.63-0.51-1.63-0.41-2.76 2.66-1.63 2.55-3.88 10.32-5.51 13.79-1.74 3.06-3.27 5.52-4.6 6.13-1.53 0.31-1.63-1.13-3.47-3.48-2.15-2.76-5.83-8.27-8.69-11.44-3.06-3.27-6.02-5.31-8.89-6.94-2.243-0.21-5-0.21-7.453 0.4-2.554 0.41-5.619 1.23-8.378 2.46 0.103 3.37 0.715 6.84 1.432 10.42 0.51 3.47 3.371 8.07 3.063 10.62-0.51 2.14-2.145 3.27-4.902 2.96-2.964-0.61-9.298-3.68-12.261-4.8-3.166-1.33-5.107-1.43-6.64-1.84-1.742-0.4-3.273-0.71-4.193-0.51z" />
	<path
   id="path105"
   style="stroke:#000000;stroke-width:.036;stroke-miterlimit:10;fill-rule:evenodd"
   d="m113.76 237.09c-0.31-1.33 1.12-3.58 1.94-5.11 0.61-1.74 1.43-2.86 2.86-4.19 1.23-1.74 4.29-3.47 5.62-3.99 1.43-0.61 2.25 0.72 2.04 1.64-0.61 1.02-4.08 1.84-5.31 3.58-1.43 1.43-2.45 3.47-3.07 5.31-0.61 1.53-0.92 4.19-1.33 4.8-0.81 0.31-2.65-0.92-2.75-2.04z" />
	<path
   id="path107"
   style="stroke:#000000;stroke-width:.036;stroke-miterlimit:10;fill-rule:evenodd"
   d="m166.68 228.1c-0.51-1.64-2.76-3.07-3.98-4.3-1.54-1.32-2.76-2.14-4.5-2.86-2.04-1.02-5.62-1.63-6.74-1.43-1.54 0-2.05 1.74-1.13 2.46 0.82 0.3 4.4 0.3 6.44 1.22 1.94 0.82 3.47 2.56 5.01 4.09 1.32 1.02 2.45 4.08 3.37 4.08 0.71-0.2 1.73-1.93 1.53-3.26z" />
	<path
   id="path109"
   style="stroke:#000000;stroke-width:.036;stroke-miterlimit:10;fill-rule:evenodd"
   d="m111.82 243.01c0.2 0.92 1.33 1.43 2.45 1.23 1.12-0.31 1.84-1.23 1.63-2.15-0.2-1.02-1.22-1.53-2.45-1.32-1.12 0.3-1.84 1.22-1.63 2.24z" />
	<path
   id="path111"
   style="stroke:#000000;stroke-width:.036;stroke-miterlimit:10;fill-rule:evenodd"
   d="m164.54 235.04c0.2 0.92 1.22 1.43 2.45 1.23 1.12-0.31 1.83-1.23 1.63-2.15-0.2-1.02-1.33-1.53-2.45-1.32-1.13 0.3-1.84 1.22-1.63 2.24z" />
	<path
   id="path113"
   style="stroke:#000000;stroke-width:.036;stroke-miterlimit:10;fill-rule:evenodd"
   d="m136.64 238.62c-1.02 0.51-3.26 0.92-4.8 1.23-1.63 0.3-3.06 0.2-4.7 0.1-2.04-0.51-4.9-1.64-5.82-2.15-0.92-0.71-1.02-2.55 0.1-2.35 1.02-0.1 3.27 1.64 5.52 2.05 1.73 0.1 3.57-0.21 5.51-0.52 1.54-0.71 3.38-1.73 4.29-1.53 0.52 0.11 0.62 2.35-0.1 3.17z" />
	<path
   id="path115"
   style="stroke:#000000;stroke-width:.036;stroke-miterlimit:10;fill-rule:evenodd"
   d="m159.22 235.86c-1.02 0.51-3.27 0.92-4.8 1.23-1.64 0.3-3.06 0.2-4.7 0.1-2.04-0.51-4.9-1.63-5.82-2.15-0.92-0.71-1.02-2.55 0.1-2.35 1.02-0.1 3.27 1.64 5.52 2.05 1.73 0.1 3.57-0.21 5.51-0.51 1.54-0.72 3.37-1.74 4.29-1.54 0.51 0.11 0.62 2.35-0.1 3.17z" />
	<path
   id="path117"
   style="stroke:#000000;stroke-width:.036;stroke-miterlimit:10;fill-rule:evenodd"
   d="m61.041 217.88c-0.306-1.43-0.715-3.47-0.817-4.9-0.306-1.74-0.816-4.19-0.407-5.01 0.306-0.92 1.225-1.33 1.939-0.82 0.103 0.21 0.512 0.21 0.818 2.76 0.409 2.15 2.145 8.89 2.452 10.83-0.307 1.64-1.941 1.02-2.555 0.51-0.715-0.61-1.327-2.15-1.43-3.37z" />
	<path
   id="path119"
   style="stroke:#000000;stroke-width:.036;stroke-miterlimit:10;fill-rule:evenodd"
   d="m57.16 221.46c-0.817-1.13-1.329-3.48-1.941-4.7-0.818-1.74-1.43-3.68-1.43-4.7-0.103-1.23 1.124-1.54 1.736-1.33 0.307-0.1 0.409 0.61 1.431 2.55 0.92 2.35 4.188 7.66 4.7 10.02 0.307 1.83-1.838 1.12-2.453 1.02-0.716-0.41-1.534-1.64-2.043-2.86z" />
	<path
   id="path121"
   style="fill-rule:evenodd;stroke:#000000;stroke-width:.036;stroke-miterlimit:10;fill:#a16121"
   d="m84.232 200.21c-1.838 0.61-4.086 1.84-6.333 3.27-2.657 1.12-5.517 3.57-7.764 5.41-2.248 1.74-4.29 3.78-5.722 5.72 2.861 0.72 5.518 1.64 8.786 2.76 3.269 1.02 6.846 2.76 9.604 3.58 2.043 0.71 3.576 0.71 4.597 0.4 0.818-0.2 1.124-1.22 0.92-2.65-0.511-2.15-1.941-6.03-2.656-8.48-0.92-2.66-1.432-5.31-1.533-6.74-0.206-1.64-0.306-2.86 0.101-3.27z" />
	<path
   id="path123"
   style="fill-rule:evenodd;stroke:#000000;stroke-width:.036;stroke-miterlimit:10;fill:#a16121"
   d="m57.364 223.6c1.226 2.25 2.35 4.29 3.78 6.13 1.227 1.74 2.656 2.55 4.29 4.09 1.432 1.22 3.883 2.65 5.006 3.88 0.92 1.12 1.533 2.04 1.021 3.16-1.122 0.62-2.758 1.34-4.903 2.15-2.35 0.82-4.291 1.13-7.458 2.05-3.372 0.61-7.05 1.32-11.851 2.14 1.43-4.39 3.167-8.68 4.801-12.46 1.739-4.09 3.372-7.66 5.314-11.14z" />
	<path
   id="path125"
   style="fill-rule:evenodd;stroke:#000000;stroke-width:.036;stroke-miterlimit:10;fill:#a16121"
   d="m43.265 259.36c1.226 1.22 2.554 2.35 4.393 3.78 1.736 1.22 3.575 2.55 5.925 3.98 2.145 1.23 4.496 2.05 6.641 2.86 1.941 0.51 3.372 0.51 4.292 1.13 0.612 0.1 0.612 0.61-0.818 1.94-2.145 1.22-6.742 4.19-9.808 6.13-2.962 1.53-4.904 2.45-7.458 4.29-2.759 1.84-5.619 3.47-8.582 6.03-0.409-3.68-0.306-7.36 0.715-12.57 0.92-5.11 2.35-10.83 4.7-17.57z" />
	<path
   id="path127"
   style="fill-rule:evenodd;stroke:#000000;stroke-width:.036;stroke-miterlimit:10;fill:#a16121"
   d="m37.441 298.79c1.43 0.52 2.963 1.64 5.722 2.25 2.247 0.51 6.13 1.64 9.297 2.15 2.861 0.3 5.925 0 8.786 0.3 2.86 0 6.64-0.2 8.173 0.51 1.021 0.31 0.612 0.62-0.409 2.46-1.227 1.94-3.984 5.1-5.925 8.27-2.146 2.56-3.678 5.31-5.721 8.69-2.35 3.16-4.904 7.25-7.664 11.44-2.042-2.76-3.881-5.93-5.516-9.5-1.633-3.58-3.983-7.56-4.699-11.96-1.329-4.59-1.737-9.19-2.044-14.61z" />
	<path
   id="path129"
   style="fill-rule:evenodd;stroke:#000000;stroke-width:.036;stroke-miterlimit:10;fill:#a16121"
   d="m57.261 342.72c1.941-0.2 4.394-0.61 7.356-1.22 2.554-0.72 6.743-1.84 9.809-2.97 2.859-1.43 5.72-2.96 8.173-4.18 2.247-1.53 3.983-2.66 5.619-3.37 0.918-0.82 1.839-1.54 2.35-1.33 0.408 0 1.124-0.31 1.736 1.43 0.715 1.53 1.329 5.52 2.248 8.38 0.511 2.45 1.635 5.2 2.248 7.45 0.613 1.74 0.613 3.68 1.635 5.42 0.816 1.74 1.735 3.78 3.165 5.72-5.617-1.12-10.725-1.94-15.322-3.27-4.802-1.33-8.173-2.35-12.874-4.19-4.802-2.25-10.319-4.49-16.143-7.87z" />
	<path
   id="path131"
   style="fill-rule:evenodd;stroke:#000000;stroke-width:.036;stroke-miterlimit:10;fill:#a16121"
   d="m117.44 359.89c1.33-1.23 3.27-3.27 4.7-5.31 1.32-2.25 3.27-5.72 4.59-8.07 1.13-2.97 1.74-5.52 2.97-6.85 0.71-1.23 1.63-1.02 3.16 0.2 1.54 0.82 3.58 4.4 6.13 6.44 2.35 1.84 5.01 3.88 7.56 5.72 2.15 1.33 4.09 2.97 5.83 4.09 1.53 1.02 2.86 2.35 3.98 3.17-2.45 0.3-5.62 0.1-9.5 0.51-4.19 0.31-9.3 0.1-14.1 0.51-5 0.1-10.11-0.31-15.32-0.41z" />
	<path
   id="path133"
   style="fill-rule:evenodd;stroke:#000000;stroke-width:.036;stroke-miterlimit:10;fill:#a16121"
   d="m177.71 357.44c0.82-3.27 1.94-6.75 2.25-10.42 0-3.99-0.3-10.02 0.31-12.16 0.61-2.25 1.53-1.94 3.98-1.43 2.25 0.41 5.21 1.63 9.3 3.27 3.88 1.02 9.91 2.65 14.51 4.08 4.39 1.13 8.27 2.46 12.05 3.58-4.19 2.25-8.48 4.29-12.87 6.13-4.7 1.53-9.09 3.37-14 4.39-4.9 0.92-10.21 2.15-15.53 2.56z" />
	<path
   id="path135"
   style="fill-rule:evenodd;stroke:#000000;stroke-width:.036;stroke-miterlimit:10;fill:#a16121"
   d="m248.51 314.83c-1.33-0.3-3.06-0.3-5.62-1.12-2.65-0.92-6.53-2.04-9.7-2.96-3.37-1.23-7.77-2.76-10.01-3.37-2.56-1.33-3.58-1.84-4.19-1.94-0.82-0.21-0.92 0.2-0.31 2.45 0.62 2.14 1.74 6.23 3.37 10.32 1.03 3.57 2.96 9.39 4.29 12.77 1.13 3.37 2.25 5.92 2.96 7.66 2.86-2.66 5.52-5.21 7.98-7.66 2.24-2.66 4.49-4.7 6.33-7.26 1.84-2.76 3.47-5.72 4.9-8.89z" />
	<path
   id="path137"
   style="fill-rule:evenodd;stroke:#000000;stroke-width:.036;stroke-miterlimit:10;fill:#a16121"
   d="m261.28 273.05c-1.94 0.61-4.39 0.71-7.35 1.43-3.37 0.2-8.07 1.02-11.35 1.33-3.57 0.31-6.64-0.31-8.78 0.1-2.25-0.2-3.47-0.2-3.68 0.41-0.41 0.61 0.31 1.23 2.15 3.37 1.63 1.84 5.11 4.5 8.89 7.97 3.88 3.37 8.17 6.84 13.69 11.54 1.84-5.21 3.16-9.5 4.39-13.99 0.92-4.6 1.74-8.28 2.04-12.16z" />
	<path
   id="path139"
   style="fill-rule:evenodd;stroke:#000000;stroke-width:.036;stroke-miterlimit:10;fill:#a16121"
   d="m249.74 226.46c-1.94 2.66-3.27 5.93-4.81 8.69-1.53 2.86-3.37 6.53-3.98 8.68-1.12 1.84-1.94 2.96-1.23 3.78 0.52 0.51 2.25 1.12 4.81 1.84 2.24 0.71 7.05 1.63 9.7 2.35 2.56 0.61 4.29 0.41 5.62 0.51-1.12-5.01-2.45-9.6-3.98-13.79-1.84-4.4-3.89-8.28-6.13-12.06z" />
	<path
   id="path141"
   style="fill-rule:evenodd;stroke:#000000;stroke-width:.036;stroke-miterlimit:10;fill:#a16121"
   d="m219.4 200.82c-0.52 2.66-1.23 5.41-1.74 8.27-0.92 2.76-1.64 5.52-2.15 7.87-0.81 1.94-1.53 3.88-1.02 5.01 0.21 1.22 1.02 1.63 3.68 2.04 2.45-0.1 8.17-0.31 11.65-0.61 2.86-0.31 5.21-0.31 7.46-0.82 2.14-0.72 4.18-1.94 6.12-3.27-3.16-3.68-6.74-6.85-10.72-9.91-4.19-3.37-8.48-5.82-13.28-8.58z" />
	<path
   id="path143"
   style="fill-rule:evenodd;stroke:#000000;stroke-width:.036;stroke-miterlimit:10;fill:#a16121"
   d="m173.63 189.89c1.33 1.63 2.24 3.06 3.16 5.11 0.72 1.63 0.82 3.78 1.54 6.02 0.41 2.25 0.61 5.62 1.43 7.36 0.41 1.64 1.22 2.25 2.86 2.25 1.63-0.31 3.78-1.74 6.84-3.17 2.86-1.64 6.95-4.49 10.73-6.23 3.37-1.94 6.95-3.47 10.32-4.6-7.56-2.55-13.79-3.88-18.7-5.11-5-0.81-8.17-1.53-11.03-1.32-3.17-0.31-5.42-0.41-7.15-0.31z" />
	<path
   id="path145"
   style="fill-rule:evenodd;stroke:#000000;stroke-width:.036;stroke-miterlimit:10;fill:#a16121"
   d="m164.54 191.01c-1.03-0.3-3.28 0-7.98 0.51-4.7 0.52-11.03 1.64-19.41 2.97 2.56 2.14 4.4 4.08 5.93 6.23 1.12 1.74 1.64 3.68 2.76 5.82 0.92 1.84 2.14 5.92 3.27 6.74 0.71 0.52 1.12-0.3 2.45-2.45 1.12-2.45 3.68-8.17 5.31-10.83 1.33-2.55 2.45-3.47 3.78-4.7 1.43-1.53 2.35-2.96 3.89-4.29z" />
	<path
   id="path147"
   style="fill-rule:evenodd;stroke:#000000;stroke-width:.036;stroke-miterlimit:10;fill:#a16121"
   d="m105.28 196.63c1.43-0.1 3.27-0.1 5.52 0 1.84-0.1 4.59 0.1 7.05 0.21 2.45-0.51 4.8-0.41 7.45-0.82 2.56-0.51 5.01-0.41 7.77-0.82-1.43 2.15-2.66 5.21-4.09 8.07-1.53 3.07-3.37 7.25-4.29 9.81-0.92 2.04-1.63 3.06-2.15 3.06-0.91-0.3-1.53-1.43-2.96-3.37-1.73-2.55-4.7-6.53-6.94-9.19-2.56-2.66-5.01-5.11-7.36-6.95z" />
	<path
   id="path149"
   style="stroke:#000000;stroke-width:.036;stroke-miterlimit:10;fill-rule:evenodd"
   d="m38.156 271.31c-1.533-1.02-3.983-2.14-5.414-3.37-2.146-1.53-4.188-2.96-5.006-3.88-0.614-1.23 0-2.04 1.021-2.04 0.409-0.31 0.614 0.1 3.371 1.63 2.453 1.43 10.217 5.42 12.261 7.26 1.531 1.43-1.124 2.04-2.043 2.24-1.124-0.1-2.657-1.12-4.19-1.84z" />
	<path
   id="path151"
   style="stroke:#000000;stroke-width:.036;stroke-miterlimit:10;fill-rule:evenodd"
   d="m39.893 265.28c-1.123-0.71-2.757-1.63-3.778-2.35-1.533-0.81-2.964-2.24-3.474-2.65-0.307-0.72-0.205-1.74 0.715-1.53 0.409-0.31 0.409 0.1 2.35 1.22 1.839 0.82 7.05 3.78 8.583 5.01 0.817 0.92-0.715 1.43-1.431 1.53-1.024 0-1.739-0.92-2.965-1.23z" />
	<path
   id="path153"
   style="stroke:#000000;stroke-width:.036;stroke-miterlimit:10;fill-rule:evenodd"
   d="m86.173 356.11c-1.43 1.12-3.064 3.17-4.495 4.6-1.633 1.22-3.881 3.47-4.802 3.98-1.124 0.2-2.247-0.82-1.838-1.43-0.204-0.82 0.306-0.72 2.35-2.86 1.941-2.35 7.661-9.4 9.706-10.52 1.635-1.44 1.838 1.22 1.736 2.45-0.51 1.02-1.533 2.14-2.657 3.78z" />
	<path
   id="path155"
   style="stroke:#000000;stroke-width:.036;stroke-miterlimit:10;fill-rule:evenodd"
   d="m80.657 353.04c-1.124 0.92-2.043 2.15-3.168 3.27-1.225 1.13-2.758 2.05-3.372 2.76-0.919 0.11-1.328-0.61-1.225-1.02-0.103-0.51 0.306-0.61 1.633-1.94 1.432-1.74 5.007-6.54 6.743-7.35 0.92-1.03 1.329 0.71 1.226 1.63-0.202 0.81-1.326 1.43-1.837 2.65z" />
	<path
   id="path157"
   style="stroke:#000000;stroke-width:.036;stroke-miterlimit:10;fill-rule:evenodd"
   d="m164.33 356c0.41 1.13 1.02 3.17 1.43 4.91 0.31 1.43 0.92 3.98 1.02 4.9-0.51 0.82-1.22 0.92-1.74 0.72-0.3-0.51-0.81-0.51-1.12-2.76-1.12-2.25-3.37-9.09-3.58-10.73-0.3-1.84 1.54-1.02 2.36-0.3 0.61 0.41 1.02 1.63 1.63 3.26z" />
	<path
   id="path159"
   style="stroke:#000000;stroke-width:.036;stroke-miterlimit:10;fill-rule:evenodd"
   d="m158.51 356.52c0.3 1.02 0.41 3.06 0.71 4.49-0.1 1.33 0.41 3.27 0.31 4.29-0.41 0.62-1.33 0.92-1.64 0.52-0.61-0.41-0.3-0.72-0.61-2.56-0.82-2.25-1.84-8.27-1.94-9.81 0-1.94 1.33-0.51 2.04 0 0.31 0.51 0.82 1.54 1.13 3.07z" />
	<path
   id="path161"
   style="stroke:#000000;stroke-width:.036;stroke-miterlimit:10;fill-rule:evenodd"
   d="m239.83 329.03c0.92 0.51 2.04 1.13 3.37 2.25 1.33 1.13 3.27 2.96 4.7 3.88 0.92 0.41 2.55 0.41 2.14-0.4-0.71-1.23-2.96-4.19-5.11-5.73-2.45-1.63-5.61-3.67-7.15-3.78-1.43-0.51-1.84 1.74-1.22 2.46 0.3 0.41 1.94 0.71 3.27 1.32z" />
	<path
   id="path163"
   style="stroke:#000000;stroke-width:.036;stroke-miterlimit:10;fill-rule:evenodd"
   d="m235.54 333.12c0.61 0.31 1.74 1.12 2.96 2.04 1.02 0.72 3.06 2.76 4.19 3.37 1.02 0.41 2.04 0.31 1.84-0.3-0.61-1.02-2.76-3.78-4.5-5.11-1.84-1.74-5.1-2.96-6.23-3.27-1.33-0.31-1.53 1.33-1.02 2.15 0.2 0.61 1.63 0.2 2.76 1.12z" />
	<path
   id="path165"
   style="stroke:#000000;stroke-width:.036;stroke-miterlimit:10;fill-rule:evenodd"
   d="m255.56 236.58c1.02-0.62 3.48-1.02 5.01-1.23 1.43-0.41 3.98-1.02 4.9-0.71 0.72 0.2 0.92 0.92 0.61 1.73-0.51 0.1-0.51 0.31-2.75 1.02-2.76 0.62-8.89 2.66-10.94 2.97-2.04-0.21-0.61-1.64-0.1-2.35 0.41-0.82 1.64-1.03 3.27-1.43z" />
	<path
   id="path167"
   style="stroke:#000000;stroke-width:.036;stroke-miterlimit:10;fill-rule:evenodd"
   d="m255.76 242.4c1.13-0.2 2.76-0.51 4.5-0.51 1.23-0.41 3.47-0.41 4.39 0 0.51 0.31 0.62 0.81 0.31 1.53-0.41 0.41-0.71-0.2-2.55 0.51-2.25 0.31-8.28 1.33-9.81 1.43-1.54-0.1-0.72-1.84 0.1-2.04 0.51-0.51 1.53-0.82 3.06-0.92z" />
	<path
   id="path169"
   style="stroke:#000000;stroke-width:.036;stroke-miterlimit:10;fill-rule:evenodd"
   d="m98.229 281.42c-5.925-1.02-19.717-1.32-30.343-2.55-10.931-1.43-24.621-5-33.204-6.03-8.377-1.53-13.792-2.24-16.652-2.14-3.168-0.31-3.168 1.43-2.351 2.04 0.204 0.21 1.227 0.51 5.416 1.33 4.393 0.92 11.238 1.63 19.717 3.27 8.173 1.33 19.513 3.68 28.503 5.11 8.275 1.12 17.266 1.43 22.579 2.04 5.108 0.31 8.376 0.51 9.396 0.21 1.03-0.72 2.35-2.35-3.061-3.28z" />
	<path
   id="path171"
   style="stroke:#000000;stroke-width:.036;stroke-miterlimit:10;fill-rule:evenodd"
   d="m22.117 303.7c6.437-0.82 13.281-2.04 21.659-3.27 8.173-1.53 19.003-4.39 27.38-5.83 8.378-1.84 16.347-3.57 21.557-4.08 4.699-0.92 6.231-0.62 7.357-0.2 0.92 0.4 2.35 1.42-1.636 2.65-4.7 1.02-16.142 2.45-24.52 4.29-8.48 1.64-16.959 3.88-25.847 5.62-9.297 1.33-19.82 2.96-27.278 3.78-7.458 0.72-13.281 1.74-16.652 1.84-3.576-0.2-4.292-1.33-4.086-1.74 0.101-0.61 0.715-0.92 4.597-1.32 3.778-0.52 10.521-1.23 17.469-1.74z" />
	<path
   id="path173"
   style="stroke:#000000;stroke-width:.036;stroke-miterlimit:10;fill-rule:evenodd"
   d="m26.816 337.31c6.13-3.27 19.31-10.11 27.688-14.2 7.867-4.19 13.28-6.74 20.228-10.01 6.743-3.58 16.04-8.38 20.432-10.01 4.189-1.54 5.416-0.82 4.803 0.51-0.716 0.61-3.576 2.24-9.399 5.31-6.642 3.06-18.186 8.17-27.482 12.97-9.195 4.5-17.98 9.3-26.358 14-8.787 4.39-18.493 10.12-24.009 12.77-5.619 1.84-7.254 2.25-8.071 1.64-0.919-0.41 0.715-2.46 3.27-3.78 2.248-1.95 7.355-3.58 10.625-5.32 2.859-1.53 2.348-1.12 8.273-3.88z" />
	<path
   id="path175"
   style="stroke:#000000;stroke-width:.036;stroke-miterlimit:10;fill-rule:evenodd"
   d="m197.84 269.17c5.31-2.05 18.9-4.91 29.32-8.18 10.12-3.88 22.17-8.37 31.47-12.26 9.19-3.88 18.59-8.68 23.08-10.01 4.19-1.22 2.97 0.62 2.66 1.64-0.51 0.4-0.1 0-5.11 2.34-5.62 2.15-16.85 7.87-25.84 11.65-9.1 3.68-19.01 7.15-26.98 10.42-8.27 2.76-16.85 4.7-21.76 6.23-5.31 1.23-8.37 2.15-9.19 1.94-1.23-0.4-3.07-1.94 2.35-3.77z" />
	<path
   id="path177"
   style="stroke:#000000;stroke-width:.036;stroke-miterlimit:10;fill-rule:evenodd"
   d="m270.37 277.14c-6.84 0.51-13.58 0.92-21.86 1.22-8.58 0.2-19.61-0.51-27.99-0.2-8.58-0.21-16.96 0.2-21.97 0.4-4.9 0.11-6.53 0.82-7.25 1.34-0.82 0.51-2.55 1.63 2.25 2.14 4.49 0.31 16.04-1.02 24.82-0.82 8.58 0 17.27 0.11 26.46 0.31 9.1-0.41 19.82-1.43 27.49-1.84 7.45-0.61 12.87-1.12 16.65-1.53 3.27-1.02 3.57-1.84 3.68-2.45-0.11-0.62-1.43-0.62-4.81-0.41-4.08 0.4-10.82 1.02-17.47 1.84z" />
	<path
   id="path179"
   style="stroke:#000000;stroke-width:.036;stroke-miterlimit:10;fill-rule:evenodd"
   d="m264.24 302.27c-6.54-2.05-21.66-5.82-30.03-8.17-8.89-2.25-16.45-4.4-21.86-5.62-5.52-1.43-8.48-2.86-10.83-2.76-2.97-0.21-5.42 0.3-4.6 1.53 0.61 0.92 5.62 1.64 10.32 3.27 4.39 1.02 10.62 2.15 18.28 4.19 7.87 2.04 19.41 5.31 28.71 8.27 9.1 2.46 20.03 6.13 26.05 7.46 5.32 1.12 7.56 0.21 8.28 0 0.61-0.71-1.64-1.84-3.98-2.96-2.66-1.23-8.18-2.25-11.45-3.07-3.67-1.12-2.45-0.41-8.89-2.14z" />
	<path
   id="path181"
   style="stroke:#000000;stroke-width:.036;stroke-miterlimit:10;fill-rule:evenodd"
   d="m145.94 196.84c0.82-1.13 1.74-2.76 3.88-4.5 1.84-1.84 6.34-4.8 7.97-6.13 1.33-1.53 1.84-2.65 1.94-2.96 0-0.72-0.81-1.02-1.63-0.51-1.23 0.51-2.56 1.53-3.99 3.06-1.53 1.23-2.86 2.25-4.39 3.88-1.64 1.33-3.99 2.76-4.7 4.3-0.82 1.22-1.53 2.24-1.02 3.06 0 0.51 0.92 0.31 1.94-0.2z" />
	<path
   id="path183"
   style="stroke:#000000;stroke-width:.036;stroke-miterlimit:10;fill-rule:evenodd"
   d="m142.36 195.51c0.21-0.82 0.92-2.86 2.15-4.5 1.33-2.35 4.19-5 5.41-6.74 1.03-1.74 0.82-2.55 0.92-2.86-0.2-0.51-0.82-0.92-1.43-0.1-0.81 0.51-1.83 1.94-2.65 3.47-0.82 1.12-2.15 2.45-2.86 3.98-1.13 1.44-2.46 2.97-2.86 4.6-0.62 1.02-0.72 2.35-0.31 2.76 0 0.31 0.92 0.1 1.63-0.61z" />
	<path
   id="path185"
   style="stroke:#000000;stroke-width:.036;stroke-miterlimit:10;fill-rule:evenodd"
   d="m125.3 199.08c-0.92-0.92-1.53-3.06-2.65-4.49-1.23-1.43-2.15-2.76-3.58-3.58-1.53-0.92-4.09-1.73-4.9-2.04-1.13-0.72-1.02-1.23-0.82-1.53 0-0.31 0.51-1.23 1.53-0.82 0.82 0 2.56 0 4.4 1.53 1.53 1.23 4.18 3.78 5.62 5.72 1.22 1.43 1.94 3.17 2.14 4.09-0.2 0.92-0.92 1.43-1.74 1.12z" />
	<path
   id="path187"
   style="stroke:#000000;stroke-width:.036;stroke-miterlimit:10;fill-rule:evenodd"
   d="m130 196.53c-1.12-1.12-1.94-3.88-2.86-5.93-0.82-2.35-1.94-5.31-1.73-6.54-0.21-1.12 0.81-1.83 1.53-1.02 0.3 0.31 0.41 1.84 1.12 3.48 0.51 1.22 1.33 4.19 2.04 5.72 0.31 1.43 1.23 2.35 1.23 3.17-0.31 0.51-0.61 1.94-1.33 1.12z" />
	<path
   id="path189"
   style="stroke:#000000;stroke-width:.036;stroke-miterlimit:10;fill-rule:evenodd"
   d="m136.03 194.59c-0.41-0.31-0.72-1.43-0.51-2.56 0-1.53 0.51-3.67 1.12-5.21 0.51-1.63 1.33-3.06 2.05-4.29 0.3-1.63 0-3.47 0.61-4.7 0.71-1.43 1.33-3.47 2.25-3.78 0.51-0.71 1.02 0.11 1.12 0.92-0.41 0.61-1.02 2.15-1.43 3.47-0.71 1.44-0.51 2.66-0.92 4.5-0.61 1.74-1.84 3.68-2.14 5.42-0.52 1.22-0.93 2.45-0.82 3.26-0.41 0.62 0.1 1.03 0 1.64-0.31 0.51-1.13 1.33-1.33 1.33z" />
	<path
   id="path191"
   style="stroke:#000000;stroke-width:.036;stroke-miterlimit:10;fill-rule:evenodd"
   d="m146.86 284.29c-3.48 0.41-6.54 0.3-9.2 0.1-2.65-0.51-5-1.12-7.45-2.25-2.97-1.43-5.62-4.29-9.1-5.82-3.78-1.74-8.58-3.27-11.64-4.6-3.17-1.22-4.8-2.65-6.13-3.88-1.74-1.94-2.66-4.09-2.76-6.03-0.41-1.94-0.1-4.49 1.74-5.72 1.94-1.64 5-3.27 9.19-3.37 3.78-0.31 8.89 0.3 13.69 1.43 4.8 0.61 9.91 3.47 14.1 3.88 3.68 0.41 4.39 0.11 8.79-0.92 4.19-1.53 11.23-5.62 16.45-6.74 4.9-1.13 10.21-1.23 13.58-0.31 2.97 0.31 4.91 0.92 5.42 3.07 0.41 1.94-0.62 5.62-2.25 8.68-2.35 2.55-6.33 5.72-8.79 7.97-2.04 1.94-2.76 3.78-4.08 5.52-1.74 1.94-2.56 4.19-5.62 5.92-3.27 1.33-7.66 2.25-13.18 2.76-0.1 4.5 0.71 8.99 1.33 13.08 0.61 4.29 1.32 7.66 3.27 11.64 1.63 3.68 4.9 6.95 7.45 9.81 2.15 2.46 4.4 4.09 7.16 5.32 2.75 0.92 6.84 1.32 9.91 1.22 2.55-0.61 5.21-1.53 7.97-3.57 3.16-2.15 6.74-6.85 9.09-8.18 1.74-1.53 1.94-0.3 1.84 0.51-0.62 0.72-2.04 2.66-3.88 4.6-2.05 1.74-4.6 4.6-7.67 6.23-3.78 1.64-7.97 2.56-12.15 2.76-4.09-0.3-8.08-2.04-11.14-4.08-3.06-2.35-6.03-6.44-7.76-9.1-2.05-2.86-3.38-5.21-3.99-7.45-0.61 4.08-1.53 7.76-3.17 11.44-1.73 3.47-3.88 7.35-6.43 9.7-2.76 2.05-5.72 3.48-8.89 3.88-3.47 0.11-7.15-0.3-10.62-1.22-3.79-1.12-7.16-2.45-10.12-3.99-2.96-1.73-6.33-4.39-7.35-5.61-1.23-1.33-0.92-2.66-0.21-2.46 0.41-0.1 1.23 0.51 2.86 1.85 1.54 0.81 3.17 2.55 5.72 3.98 2.25 1.12 4.6 2.45 7.87 3.57 3.07 0.82 7.56 1.54 10.73 1.74 2.76-0.11 5-0.92 7.15-2.45 1.94-1.33 3.78-3.68 5.52-6.64 1.53-3.78 3.88-9.61 4.7-13.59 0.51-3.78 0.1-6.64 0-9.4-0.31-3.17-1.13-6.95-1.33-8.99-0.42-2.25-0.62-3.68-0.62-4.29z" />
	<path
   id="path193"
   style="fill-rule:evenodd;stroke:#000000;stroke-width:.036;stroke-miterlimit:10;fill:#ffffff"
   d="m105.38 259.66c0 0.41 0.51 0.82 1.02 0.82s1.02-0.41 1.02-0.82c0-0.51-0.51-0.81-1.02-0.81s-1.02 0.3-1.02 0.81z" />
	<path
   id="path195"
   style="fill-rule:evenodd;stroke:#000000;stroke-width:.036;stroke-miterlimit:10;fill:#ffffff"
   d="m107.32 257.93c0 0.41 0.41 0.82 0.92 0.82 0.61 0 1.02-0.41 1.02-0.82 0-0.51-0.41-0.82-1.02-0.82-0.51 0-0.92 0.31-0.92 0.82z" />
	<path
   id="path197"
   style="fill-rule:evenodd;stroke:#000000;stroke-width:.036;stroke-miterlimit:10;fill:#ffffff"
   d="m126.73 258.75c0 0.51 0.41 0.81 1.03 0.81 0.5 0 0.91-0.3 0.91-0.81 0-0.41-0.41-0.82-0.91-0.82-0.62 0-1.03 0.41-1.03 0.82z" />
	<path
   id="path199"
   style="fill-rule:evenodd;stroke:#000000;stroke-width:.036;stroke-miterlimit:10;fill:#ffffff"
   d="m129.7 260.18c0 0.4 0.4 0.81 1.02 0.81 0.51 0 1.02-0.41 1.02-0.81 0-0.52-0.51-0.82-1.02-0.82-0.62 0-1.02 0.3-1.02 0.82z" />
	<path
   id="path201"
   style="fill-rule:evenodd;stroke:#000000;stroke-width:.036;stroke-miterlimit:10;fill:#ffffff"
   d="m174.04 261.71c0 0.51 0.51 0.82 1.02 0.82s1.02-0.31 1.02-0.82c0-0.41-0.51-0.82-1.02-0.82-0.52 0-1.02 0.41-1.02 0.82z" />
	<path
   id="path203"
   style="fill-rule:evenodd;stroke:#000000;stroke-width:.036;stroke-miterlimit:10;fill:#ffffff"
   d="m160.65 277.44c0 0.51 0.51 0.82 1.02 0.82s1.03-0.31 1.03-0.82c0-0.41-0.52-0.82-1.03-0.82s-1.02 0.41-1.02 0.82z" />
	<path
   id="path205"
   style="fill-rule:evenodd;stroke:#000000;stroke-width:.036;stroke-miterlimit:10;fill:#ffffff"
   d="m120.5 255.58c-0.92-0.1-1.94-0.31-2.66-0.21-1.02 0-1.83-0.1-2.86 0.11-1.12 0.1-2.45 0.1-3.16 0.4-1.02 0.11-1.64 0.31-1.84 0.62-0.31 0.2-0.21 0.51 0.3 0.92 0 0.1 0.21 0.1 1.03 0 0.81-0.31 2.04-0.82 3.67-0.72 1.33-0.3 2.15 0 3.58 0.1 0.72 0 2.04 0.21 2.86 0.62 0.92 0.2 2.04 0.61 2.96 0.81 0.52-0.1 0.92-0.81 0.82-0.91-0.3-0.41-1.02-0.72-1.74-0.92-0.71-0.31-2.35-0.72-2.96-0.82z" />
	<path
   id="path207"
   style="fill-rule:evenodd;stroke:#000000;stroke-width:.036;stroke-miterlimit:10;fill:#ffffff"
   d="m166.58 269.78c0.3-1.02 0.51-1.13 1.02-1.53 0.31-0.72 1.22-1.23 1.94-1.54 0.31-0.71 1.23-0.51 1.64-0.91 0.71-0.72 0.91-1.64 1.73-1.94 0.21-0.31 1.13-0.42 1.13 0.1-0.11 0.3-0.72 1.63-1.03 2.35-0.51 0.3-1.53 0.71-1.94 1.22-0.81 0.21-1.43 0.62-1.84 1.23-0.81 0.2-0.71 0.92-1.22 1.74-0.61 1.02-1.74 1.94-2.25 3.16-0.82 0.72-1.43 1.43-1.84 1.74-0.82 0-0.72-0.41-0.82-0.82-0.2-0.61 0.51-0.92 1.03-1.73 0.41-1.23 1.73-2.25 2.45-3.07z" />
	<path
   id="path209"
   style="stroke:#000000;stroke-width:.036;stroke-miterlimit:10;fill-rule:evenodd"
   d="m160.86 373.58c-5.11-0.31-8.79-1.64-10.63-4.4-2.04-2.96-2.86-6.94-0.92-12.36 1.43-5.72 3.27-15.63 11.03-20.63 7.77-5.31 23.2-10.22 34.43-9.2 10.83 1.13 23.3 8.48 30.24 14.92 6.54 6.03 10.83 13.99 9.71 21.15-1.53 6.84-11.95 14.6-17.88 19.3-6.33 3.99-13.9 5.52-17.98 6.14-4.19 0.3-6.33-0.72-6.44-3.48-7.35 3.27-13.48 3.98-18.8 2.15-5.2-1.95-9.6-6.34-12.76-13.59z" />
	<path
   id="path211"
   style="fill-rule:evenodd;stroke:#000000;stroke-width:.036;stroke-miterlimit:10;fill:#ffc080"
   d="m190.99 382.57c-4.29 2.86-7.96 3.68-12.15 3.27-4.19-1.02-9.5-3.88-12.06-6.95-2.86-3.06-5.31-6.95-3.78-10.83 1.54-4.08 6.13-8.27 13.38-12.97-5.31 1.12-9.29 3.16-11.95 5.72-2.96 2.45-4.09 5.82-4.49 9.71-4.19 0.4-7.05-0.42-8.18-2.87-1.33-2.76-1.22-7.05 0.31-11.64 1.12-4.91 2.76-12.06 7.66-16.35 4.8-4.8 14.2-7.97 21.56-9.5 7.35-1.63 14.61-1.43 21.35 0.2 6.13 1.54 11.44 6.54 15.94 9.91 4.19 3.07 7.66 5.93 10.01 9.71 2.25 3.68 4.91 7.76 3.58 12.67-1.64 5-7.77 11.23-12.87 15.53-5.42 3.98-15.12 7.66-19.32 7.46-4.59-1.13-7.66-7.16-7.66-11.34-0.3-4.3 1.74-8.79 6.13-13.49-4.59 1.94-7.35 4.6-8.68 8.38-1.33 3.47-0.92 8.07 1.22 13.38z" />
	<path
   id="path213"
   style="stroke:#000000;stroke-width:.036;stroke-miterlimit:10;fill-rule:evenodd"
   d="m430.57 234.02c-1.53-0.3-2.35-0.41-4.09-0.3-1.94 0-4.9 0.2-6.13 0.2-1.43-0.31-2.55-1.23-1.43-1.53 1.12-0.92 4.7-1.43 7.56-1.53 2.76-0.21 6.34 0.5 7.97 1.32 1.02 0.41 0.21 2.35-0.51 2.66-0.71 0.1-2.35-0.72-3.37-0.82z" />
	<path
   id="path215"
   style="stroke:#000000;stroke-width:.036;stroke-miterlimit:10;fill-rule:evenodd"
   d="m431.38 239.85c-1.22-0.11-2.24-0.31-3.47-0.21-1.84-0.3-4.29 0.41-5.41 0.21-1.43-0.41-2.25-1.03-1.23-1.43 0.61-0.62 4.4-1.44 6.64-1.33 2.25-0.11 5.62 0.41 6.95 1.12 1.22 0.31-0.2 2.15-0.41 2.35-0.92 0-1.94-0.51-3.07-0.71z" />
	<path
   id="path217"
   style="stroke:#000000;stroke-width:.036;stroke-miterlimit:10;fill-rule:evenodd"
   d="m333.61 151.58c-0.3 0.92-0.3 2.24-0.4 3.98-0.41 1.64 0.2 4.6-0.11 6.13-0.4 1.23-1.32 2.25-1.63 1.43-0.82-1.22-1.23-5.21-1.23-7.66 0.1-2.66 0.82-6.84 1.74-7.87 0.72-1.12 2.14-0.41 2.65 0.62 0.21 0.41-0.91 2.04-1.02 3.37z" />
	<path
   id="path219"
   style="stroke:#000000;stroke-width:.036;stroke-miterlimit:10;fill-rule:evenodd"
   d="m339.54 150.96c-0.31 0.92-0.31 1.94-0.41 3.48-0.41 1.63 0.21 3.98-0.1 5.41-0.21 1.13-1.33 1.95-1.43 1.23-0.51-1.23-1.23-4.39-1.02-6.74-0.21-2.15 0.81-6.13 1.53-6.85 0.71-1.12 1.74-0.31 2.25 0.51 0.1 0.31-0.72 1.94-0.82 2.96z" />
	<path
   id="path221"
   style="stroke:#000000;stroke-width:.036;stroke-miterlimit:10;fill-rule:evenodd"
   d="m68.295 368.67c-5.21-0.3-8.582-1.63-10.522-4.39-2.248-2.96-2.554-6.95-0.92-12.36 1.432-5.72 3.27-15.63 11.034-20.64 7.764-5.31 23.191-10.21 34.433-9.19 10.83 1.12 23.29 8.48 30.24 14.91 6.54 6.03 10.83 14 9.7 21.15-1.94 6.85-11.75 14.61-17.98 19.31-6.43 3.98-13.69 5.52-17.88 6.13-4.08 0.31-6.23-0.71-6.432-3.47-7.356 3.27-13.486 3.98-18.798 2.14-5.62-1.94-9.401-6.33-12.875-13.59z" />
	<path
   id="path223"
   style="fill-rule:evenodd;stroke:#000000;stroke-width:.036;stroke-miterlimit:10;fill:#ffc080"
   d="m98.535 377.66c-4.29 2.87-7.968 3.68-12.157 3.28-4.188-1.03-9.502-3.89-12.056-6.95-3.065-3.07-5.415-6.95-3.883-10.83 1.533-4.09 6.028-8.28 13.485-12.98-5.311 1.12-9.296 3.17-11.953 5.72-2.86 2.46-4.393 5.83-4.598 9.71-4.29 0.41-6.844-0.41-8.07-2.86-1.329-2.76-1.226-7.05 0.306-11.65 1.124-4.9 2.759-12.05 7.663-16.34 4.802-4.81 14.201-7.97 21.556-9.51 7.356-1.63 14.612-1.43 21.352 0.21 6.13 1.53 11.44 6.54 15.94 9.91 4.19 3.06 7.66 5.93 10.01 9.71 2.25 3.67 4.9 7.76 3.58 12.66-1.64 5.01-7.77 11.24-12.88 15.53-5.41 3.99-15.12 7.66-19.31 7.46-4.59-1.12-7.658-7.15-7.658-11.34-0.307-4.29 1.738-8.79 6.128-13.49-4.8 1.94-7.457 4.6-8.785 8.38-1.427 3.48-0.712 8.07 1.33 13.38z" />
	<path
   id="path225"
   style="stroke:#000000;stroke-width:.036;stroke-miterlimit:10;fill-rule:evenodd"
   d="m302.15 257.32c-1.13-0.52-2.25-1.13-3.78-1.44-1.74-0.61-4.91-1.02-5.93-1.63-1.33-0.82-2.04-1.84-0.92-1.94 1.23-0.1 4.7-0.1 7.66 0.81 2.56 0.72 6.03 2.46 7.26 3.58 0.92 0.92-0.82 2.15-1.33 2.45-1.02 0.11-1.73-1.43-2.96-1.83z" />
	<path
   id="path227"
   style="stroke:#000000;stroke-width:.036;stroke-miterlimit:10;fill-rule:evenodd"
   d="m301.23 263.14c-1.12-0.51-1.94-0.92-3.27-1.23-1.64-0.41-4.29-1.02-5.21-1.43-1.13-0.82-1.94-1.53-0.82-1.73 0.82-0.11 4.4 0 6.75 0.71 2.04 0.72 5.2 2.04 6.33 3.17 0.51 0.92-0.51 1.63-1.13 2.15-0.81-0.01-1.84-1.34-2.65-1.64z" />
	<path
   id="path229"
   style="stroke:#000000;stroke-width:.036;stroke-miterlimit:10;fill-rule:evenodd"
   d="m427.81 300.12c-5.01 3.17-10.93 12.16-21.35 17.17-10.93 4.49-26.56 6.13-41.79 10.42-15.53 3.88-35.04 8.48-48.32 14.2-13.08 5.41-24.83 11.44-29.73 19.31-5.31 7.56-6.85 19.1-1.43 27.58 5.21 8.38 18.39 21.05 32.79 23.09 13.9 1.64 43.42-7.35 51.6-12.36 7.66-5.52 2.45-15.43-3.07-18.7-5.93-3.37-23.81 1.53-30.03-0.61-6.24-2.76-12.88-9.09-6.54-13.48 6.02-4.7 30.54-8.59 43.62-12.06 12.77-3.37 24.21-4.19 33.92-7.56 9.5-4.09 17.37-9.4 23.6-14.41 5.93-5.1 9.81-10.31 12.46-15.22 2.56-5.01 3.38-10.83 2.46-13.89-1.84-3.17-7.56-4.5-10.84-4.81-3.16-0.51-2.85-2.04-7.35 1.33z" />
	<path
   id="path231"
   style="fill-rule:evenodd;stroke:#000000;stroke-width:.036;stroke-miterlimit:10;fill:#ffc080"
   d="m426.79 303.09c1.63 1.83 3.47 3.98 5.1 7.97 1.54 3.67 2.87 8.17 4.4 13.89 2.96-4.19 5.11-7.97 6.43-11.34 1.13-3.78 2.05-6.85 0.82-9.2-1.43-2.24-6.94-3.67-8.68-4.29-1.84-0.92-2.05-0.92-2.97-0.41-1.32 0.41-3.16 1.54-5.1 3.38z" />
	<path
   id="path233"
   style="fill-rule:evenodd;stroke:#000000;stroke-width:.036;stroke-miterlimit:10;fill:#a16121"
   d="m425.15 304.92c1.84 1.74 3.68 4.6 5.11 8.18 1.53 3.37 2.66 7.86 3.78 13.08-1.84 1.63-3.06 3.16-4.8 5-1.74 1.64-3.37 3.37-4.91 5.21-0.71-4.7-1.83-8.58-3.78-12.05-1.94-3.58-4.69-6.34-7.86-8.69 2.04-1.33 4.19-2.86 6.43-4.6 1.95-1.83 4.09-3.88 6.03-6.13z" />
	<path
   id="path235"
   style="fill-rule:evenodd;stroke:#000000;stroke-width:.036;stroke-miterlimit:10;fill:#ffc080"
   d="m411.56 316.37c-1.12 0.71-2.75 0.92-4.08 1.73-1.53 0.31-3.17 1.23-4.91 1.64 1.13 2.86 1.13 6.43 1.13 11.14-0.31 4.69-1.13 9.7-2.45 16.24 5.82-2.15 10.31-4.5 13.89-5.93 3.37-1.53 5.72-3.27 7.05-4.09-0.1-4.28-1.02-7.66-2.76-11.23-1.74-3.58-4.49-6.75-7.87-9.5z" />
	<path
   id="path237"
   style="fill-rule:evenodd;stroke:#000000;stroke-width:.036;stroke-miterlimit:10;fill:#a16121"
   d="m400.74 320.66c0.51 1.43 0.61 3.88 0.3 8.48-0.51 4.29-1.12 10.21-2.25 17.77l-9.7 2.76c-0.1-3.06-1.63-6.23-4.6-9.91-3.27-3.78-7.97-7.66-14.1-12.05 7.87-1.74 14-2.97 19.21-4.09 5.01-1.22 8.58-2.35 11.14-2.96z" />
	<path
   id="path239"
   style="fill-rule:evenodd;stroke:#000000;stroke-width:.036;stroke-miterlimit:10;fill:#ffc080"
   d="m368.14 328.22l-8.06 2.04c2.24 2.35 4.18 5.52 5.41 9.5 1.23 3.89 2.04 8.48 2.45 14.2 5.31-1.53 9.2-2.96 12.47-3.47 3.06-0.72 5-0.92 6.23-0.61-1.94-4.5-4.4-8.07-7.36-11.86-3.16-3.67-6.74-6.94-11.14-9.8z" />
	<path
   id="path241"
   style="fill-rule:evenodd;stroke:#000000;stroke-width:.036;stroke-miterlimit:10;fill:#a16121"
   d="m356.8 331.18c-4.9 1.33-10 2.76-14.91 4.29-5.31 1.64-11.44 3.17-15.22 4.6-3.68 1.12-6.23 1.74-7.26 2.25 3.89 1.43 7.26 3.57 10.53 6.84 3.16 2.96 5.51 7.05 7.86 11.85 3.68-1.02 7.97-1.73 12.47-2.96 4.49-1.33 9.6-2.35 14.91-3.88-0.3-5.72-1.32-10.42-2.65-14.1-1.33-3.99-3.38-6.95-5.73-8.89z" />
	<path
   id="path243"
   style="fill-rule:evenodd;stroke:#000000;stroke-width:.036;stroke-miterlimit:10;fill:#ffc080"
   d="m317.47 343.03c-2.96 0.72-5.92 2.35-9.7 4.5-3.78 2.04-7.97 5-12.57 8.47 6.64 0.82 12.16 1.74 17.37 3.89 5.11 2.04 9.09 4.19 12.77 7.56 0.61-2.04 1.84-3.17 3.27-4.19 1.33-0.82 3.27-1.53 5.42-1.33 0.3-2.86-0.72-5.82-3.48-8.89-2.76-3.37-7.25-6.43-13.08-10.01z" />
	<path
   id="path245"
   style="fill-rule:evenodd;stroke:#000000;stroke-width:.036;stroke-miterlimit:10;fill:#a16121"
   d="m292.85 357.64c-4.09 3.78-6.84 7.36-7.87 11.85-1.32 4.29-0.92 8.79 0.82 13.9 8.38-4.29 15.74-7.05 22.48-8.69 6.74-1.63 12.46-1.73 17.57-0.71l-0.51-4.5c-5.52-3.67-10.93-6.95-16.24-8.68-5.52-1.84-10.94-3.27-16.25-3.17z" />
	<path
   id="path247"
   style="fill-rule:evenodd;stroke:#000000;stroke-width:.036;stroke-miterlimit:10;fill:#ffc080"
   d="m287.64 386.76c0.82 1.74 2.35 4.39 4.6 6.84 2.24 2.35 5 5.62 8.68 8.69 4.8-4.19 9.81-7.97 15.43-11.34 5.62-3.68 11.34-6.95 17.98-9.81-2.45-0.41-3.98-1.23-5.41-2.04-1.44-1.03-2.35-2.05-2.76-3.48-5.93-0.61-11.34-0.31-16.25 0.51-5.31 0.82-9.7 2.45-13.58 4.5-3.89 1.63-6.65 3.68-8.69 6.13z" />
	<path
   id="path249"
   style="fill-rule:evenodd;stroke:#000000;stroke-width:.036;stroke-miterlimit:10;fill:#a16121"
   d="m336.78 382.47c5.62-0.31 10.73-0.51 15.73-0.21 5.01 0.1 10.02-0.51 13.49 0.92 2.96 1.13 4.6 4.19 4.9 6.85 0.31 2.55-0.1 5.21-4.39 8.38-5.01 2.86-16.75 6.74-24.62 8.88-7.97 1.84-15.94 3.07-22.27 2.56-6.44-0.92-11.75-2.76-15.94-6.64 4.8-4.6 9.81-8.28 15.42-11.85 5.42-3.48 11.45-6.44 17.68-8.89z" />
	<path
   id="path251"
   style="stroke:#000000;stroke-width:.036;stroke-miterlimit:10;fill-rule:evenodd"
   d="m374.17 388.29c-1.22-0.21-2.55-0.51-3.98-0.51-1.94-0.1-4.9-0.1-6.13 0-1.43-0.41-2.56-1.33-1.43-1.64 0.92-0.81 4.9-1.22 7.66-1.22 2.45-0.31 6.54 1.02 7.87 1.63 0.82 0.72 0.1 2.15-0.61 2.66-0.72 0.1-2.35-0.71-3.38-0.92z" />
	<path
   id="path253"
   style="stroke:#000000;stroke-width:.036;stroke-miterlimit:10;fill-rule:evenodd"
   d="m374.79 394.12c-1.23-0.31-2.25-0.31-3.48-0.42-1.84-0.2-4.29 0.21-5.41 0-1.43-0.2-2.25-1.32-1.23-1.42 0.92-0.72 4.09-1.23 6.74-1.13 2.25-0.2 5.62 0.82 6.95 1.53 0.92 0.72-0.2 1.74-0.61 2.25-0.61 0.1-2.15-0.71-2.96-0.81z" />
	<path
   id="path255"
   style="stroke:#000000;stroke-width:.036;stroke-miterlimit:10;fill-rule:evenodd"
   d="m287.34 370.52c-1.44-0.11-2.66 0-4.09 0.3-1.84 0.41-4.6 0.61-5.93 1.02-1.53-0.3-2.76-0.61-1.73-1.32 1.02-0.72 4.39-2.36 7.35-2.56 2.45-0.31 6.44-0.51 7.97 0.2 1.13 0.51 0.31 1.94-0.1 2.76-1.02 0.1-2.05-0.3-3.47-0.4z" />
	<path
   id="path257"
   style="stroke:#000000;stroke-width:.036;stroke-miterlimit:10;fill-rule:evenodd"
   d="m289.07 376.23c-1.23-0.1-2.15 0.11-3.58 0.21-1.63 0.2-4.18 0.51-5.31 0.92-1.33-0.1-2.35-0.61-1.43-1.13 0.51-0.81 4.09-1.83 6.44-2.24 2.25-0.31 5.51-0.41 7.05 0.1 0.92 0.41 0.3 1.74-0.21 2.45-0.71 0.1-1.84-0.41-2.96-0.31z" />
	<path
   id="path259"
   style="stroke:#000000;stroke-width:.036;stroke-miterlimit:10;fill-rule:evenodd"
   d="m417.9 343.24c-0.31-1.02-0.72-2.25-1.22-3.27-0.93-1.44-2.15-3.48-2.46-4.5-0.51-1.23-0.31-2.45 0.61-1.74 0.82 0.41 2.56 3.07 3.99 5.21 0.92 1.84 1.84 5.22 1.94 6.54-0.51 1.02-1.53 0.82-2.25 0.62-0.41-0.82-0.61-1.64-0.61-2.86z" />
	<path
   id="path261"
   style="stroke:#000000;stroke-width:.036;stroke-miterlimit:10;fill-rule:evenodd"
   d="m413.81 346c-0.3-1.03-0.81-1.95-1.12-2.76-0.82-1.44-1.94-3.17-2.15-3.99-0.3-1.23-0.1-2.14 0.62-1.53 0.3 0.51 2.75 2.55 3.47 4.6 0.51 1.53 1.84 4.49 1.63 5.72-0.2 0.92-1.63 0.71-1.94 0.51-0.51-0.72-0.41-1.43-0.51-2.55z" />
</g>
<metadata
   id="metadata131"><rdf:RDF><cc:Work><dc:format>image/svg+xml</dc:format><dc:type
         rdf:resource="http://purl.org/dc/dcmitype/StillImage" /><cc:license
         rdf:resource="http://creativecommons.org/publicdomain/zero/1.0/" /><dc:publisher><cc:Agent
           rdf:about="http://openclipart.org/"><dc:title>Openclipart</dc:title></cc:Agent></dc:publisher></cc:Work><cc:License
       rdf:about="http://creativecommons.org/licenses/publicdomain/"><cc:permits
         rdf:resource="http://creativecommons.org/ns#Reproduction" /><cc:permits
         rdf:resource="http://creativecommons.org/ns#Distribution" /><cc:permits
         rdf:resource="http://creativecommons.org/ns#DerivativeWorks" /></cc:License></rdf:RDF></metadata></svg>
