<?xml version="1.0" encoding="UTF-8" standalone="no"?>
<!-- Svg Vector Icons : http://www.onlinewebfonts.com/icon -->

<svg
   version="1.1"
   x="0px"
   y="0px"
   viewBox="0 0 236.07516 221.27341"
   enable-background="new 0 0 256 256"
   xml:space="preserve"
   id="svg16"
   sodipodi:docname="donut.svg"
   width="236.07516"
   height="221.27341"
   inkscape:export-filename="donut.png"
   inkscape:export-xdpi="208.20488"
   inkscape:export-ydpi="208.20488"
   inkscape:version="1.3 (0e150ed6c4, 2023-07-21)"
   xmlns:inkscape="http://www.inkscape.org/namespaces/inkscape"
   xmlns:sodipodi="http://sodipodi.sourceforge.net/DTD/sodipodi-0.dtd"
   xmlns="http://www.w3.org/2000/svg"
   xmlns:svg="http://www.w3.org/2000/svg"><defs
   id="defs16" /><sodipodi:namedview
   id="namedview16"
   pagecolor="#ffffff"
   bordercolor="#666666"
   borderopacity="1.0"
   inkscape:showpageshadow="2"
   inkscape:pageopacity="0.0"
   inkscape:pagecheckerboard="0"
   inkscape:deskcolor="#d1d1d1"
   inkscape:zoom="3.2382812"
   inkscape:cx="99.74427"
   inkscape:cy="110.70688"
   inkscape:window-width="1920"
   inkscape:window-height="1011"
   inkscape:window-x="0"
   inkscape:window-y="0"
   inkscape:window-maximized="1"
   inkscape:current-layer="g14" />&#10;<metadata
   id="metadata1"> Svg Vector Icons : http://www.onlinewebfonts.com/icon </metadata>&#10;<g
   id="g16"
   transform="translate(-10.024832,-17.383243)"><g
     id="g15"><g
       id="g14"><path
         fill="#000000"
         d="m 116.5,17.7 c -53.6,5.3 -96.6,43.2 -105,92.7 -7.1,41.8 11.8,83.7 48.7,108.1 56.6,37.4 135.2,21.1 170.2,-35.2 7.4,-12 12.5,-25.7 14.8,-40.4 1.2,-7.1 1.2,-22.9 0,-30 -3.8,-23.7 -14.8,-44.9 -32,-61.7 -18.6,-18 -41.4,-29 -68.2,-33 -5.8,-0.8 -22.6,-1.1 -28.5,-0.5 z m 26.3,7.8 c 55.1,7.2 96.1,51.1 96,102.9 0,13.7 -2.2,17 -14.9,23.3 -14.6,7.2 -17.8,10.7 -20.4,22.6 -0.6,3 -1.8,6.6 -2.4,8 -2.4,4.8 -7.2,8.6 -12.8,10.2 -1.2,0.3 -6.6,0.8 -11.8,1.1 -5.2,0.2 -10.2,0.6 -11,0.9 -3.1,0.9 -5.8,3 -11.8,9 -4.9,5 -6.6,6.4 -9.1,7.6 -7.1,3.3 -16.4,3.1 -23.1,-0.5 -1.6,-0.8 -4.9,-3.4 -7.5,-5.9 -8.4,-7.8 -10.6,-9.3 -16.9,-10.9 -2.6,-0.6 -4.2,-0.7 -11.8,-0.4 -15.9,0.7 -18.1,0.6 -21,-0.9 -2.9,-1.4 -5.8,-4.3 -7.3,-7.2 -0.5,-1.1 -1.5,-4.2 -2.1,-6.9 -1.3,-6 -2.5,-9.2 -4.7,-12.8 -3.1,-5.3 -6.6,-7.8 -15,-11.1 -10.5,-4 -13.4,-6 -15.8,-10.7 C 17.5,139.9 16.7,129 17.7,118.7 21.2,84.3 42.6,53.8 75,37.3 c 11.8,-6.1 26,-10.4 38.7,-11.8 2.4,-0.2 5.1,-0.6 6,-0.6 2.9,-0.4 19.1,0 23.1,0.6 z m 90.8,133.6 c -11.7,34.4 -42.3,61 -80.1,69.4 -8.5,1.9 -14.6,2.5 -25.4,2.5 -10.8,0 -16.8,-0.6 -25.4,-2.5 -28.6,-6.4 -53.2,-23 -68.9,-46.5 -1.5,-2.2 -4,-6.6 -5.6,-9.8 -2.9,-5.7 -6.6,-14.7 -6.1,-15.1 0.1,-0.1 1.1,0.2 2.1,0.7 1,0.5 4,1.8 6.6,2.7 2.6,1 5.7,2.3 6.8,2.8 4.8,2.5 8,7.1 9.5,13.9 2.6,11.9 5.7,16.9 12.7,21.1 3.9,2.3 6.2,2.7 14.1,2.5 4.1,-0.1 10.7,-0.2 14.8,-0.2 7.4,0 7.4,0 10.5,1.4 2.3,1.1 4.4,2.7 8.1,6.2 7.4,7.1 10.3,9 16.8,11 4.6,1.4 14.4,1.6 18.6,0.2 6.6,-2 11.4,-5.4 17.8,-12.2 5.4,-6 5.6,-6 16.8,-6.6 6.7,-0.3 10.2,-0.6 12.9,-1.3 10.9,-2.8 18,-10.7 20.4,-22.4 1.5,-7.2 2.1,-8.6 5.1,-11.6 2.4,-2.4 4.1,-3.5 11.1,-7 4.6,-2.3 8.4,-4.2 8.4,-4.1 -0.1,0.3 -0.7,2.4 -1.6,4.9 z"
         id="path1"
         style="opacity:1" /><path
         fill="#000000"
         d="m 108.9,35.4 c -1.5,1.4 -1.5,3.6 -0.1,5 0.8,0.8 3.3,1.5 12.2,3.5 12.4,2.7 13,2.7 14.4,-0.1 0.9,-2 -0.2,-4.2 -2.6,-4.8 -3.5,-0.9 -21,-4.7 -21.9,-4.7 -0.5,-0.1 -1.4,0.4 -2,1.1 z"
         id="path2"
         style="opacity:1" /><path
         fill="#000000"
         d="m 156.4,51.9 c -0.6,0.8 -1.2,3.4 -2.2,10.6 -0.7,5.3 -1.2,10.1 -1,10.7 0.4,1.6 3.1,2.8 4.6,2.1 0.6,-0.3 1.4,-1 1.8,-1.6 0.6,-1 3.1,-16.9 3.1,-19.8 0,-2.7 -4.6,-4.2 -6.3,-2 z"
         id="path3"
         style="opacity:1" /><path
         fill="#000000"
         d="m 186.4,52.9 c -2.2,1.5 -1.9,2.9 2.4,11.9 2.2,4.6 4.4,8.8 4.9,9.2 2.1,1.8 5.9,0.1 5.9,-2.6 0,-1.7 -8,-18.1 -9.1,-18.7 -1.4,-0.7 -3,-0.6 -4.1,0.2 z"
         id="path4"
         style="opacity:1" /><path
         fill="#000000"
         d="m 108.9,66.6 c -7.8,7.6 -8.1,8.3 -6.2,10.7 0.7,0.9 1.3,1.2 2.7,1.2 1.7,0 2.2,-0.4 9,-7.1 5.9,-5.8 7.2,-7.2 7.2,-8.3 0,-1.8 -1.9,-3.6 -3.9,-3.6 -1.4,0.1 -2.3,0.8 -8.8,7.1 z"
         id="path5"
         style="opacity:1" /><path
         fill="#000000"
         d="m 58.8,63.9 c -1.7,0.9 -2.6,2.7 -2.1,4.3 0.6,1.8 17.3,13.1 19.4,13.1 2.9,0 4.6,-3.9 2.6,-5.9 C 77.5,74.2 62,63.9 60.9,63.6 c -0.5,-0.2 -1.4,0 -2.1,0.3 z"
         id="path6"
         style="opacity:1" /><path
         fill="#000000"
         d="m 119.8,86.1 c -10.9,1.8 -21.6,7.8 -27.5,15.5 -15.4,20.4 -2.9,46.5 25.3,52.9 4.1,0.9 15.9,1.1 19.9,0.2 13.9,-3 24.7,-10.7 29.8,-21.1 9.6,-19.8 -3.8,-41.6 -28.9,-47.1 -4.5,-1 -13.8,-1.2 -18.6,-0.4 z m 15.9,7.4 c 18.3,3.2 30.5,17.9 26.8,32.3 -5.4,20.5 -36.3,29.3 -56.6,16 -14.3,-9.4 -16.9,-25.7 -6,-37.5 8.2,-8.9 22.1,-13.1 35.8,-10.8 z"
         id="path7"
         style="opacity:1" /><path
         fill="#000000"
         d="m 190.2,92.4 c -4.9,2.1 -9.1,4.1 -9.6,4.7 -1.7,2 -0.6,5.2 1.9,5.7 1.1,0.2 3.1,-0.5 9.4,-3 9.8,-4.1 10.3,-4.3 11.3,-5.7 1.3,-2.1 -0.5,-5.4 -3,-5.3 -0.7,-0.1 -5.2,1.6 -10,3.6 z"
         id="path8"
         style="opacity:1" /><path
         fill="#000000"
         d="m 48.2,107.9 c -4.4,3.7 -8.3,7.1 -8.6,7.5 -1.6,2.1 0.3,5.6 3,5.6 1.2,0 3,-1.3 9.7,-6.9 4.6,-3.8 8.5,-7.3 8.8,-7.8 0.7,-1.4 0.6,-2.5 -0.5,-3.9 -0.7,-0.9 -1.3,-1.2 -2.6,-1.2 -1.5,-0.1 -2.6,0.7 -9.8,6.7 z"
         id="path9"
         style="opacity:1" /><path
         fill="#000000"
         d="m 193.4,124.5 c -1.4,1.4 -1.5,3 -0.1,4.6 1.3,1.6 18.6,11.4 20.5,11.7 2.9,0.5 5,-3.5 3,-5.8 -1.4,-1.6 -19.5,-11.6 -21,-11.6 -0.8,-0.1 -1.8,0.4 -2.4,1.1 z"
         id="path10"
         style="opacity:1" /><path
         fill="#000000"
         d="m 64,136 c -0.6,0.4 -1.2,1.2 -1.5,1.8 -0.5,1.2 2.4,22 3.3,23.6 1.2,2.3 4.7,2.3 6.2,0 0.7,-1.1 0.6,-1.8 -0.9,-12.3 -0.9,-6.1 -1.9,-11.5 -2.2,-12 -0.5,-0.9 -2.2,-1.8 -3.3,-1.8 -0.3,0 -1,0.3 -1.6,0.7 z"
         id="path11"
         style="opacity:1" /><path
         fill="#000000"
         d="m 180.2,146 c -0.6,0.2 -1.4,0.9 -1.7,1.5 -0.3,0.6 -1.6,6 -2.9,12 -2.2,10.2 -2.3,11 -1.7,12.3 1.2,2.2 3.6,2.6 5.5,0.8 1,-0.9 1.4,-2.5 3.5,-12.2 1.3,-6.2 2.3,-11.6 2.1,-12 -0.5,-2.1 -2.8,-3.1 -4.8,-2.4 z"
         id="path12"
         style="opacity:1" /><path
         fill="#000000"
         d="m 99.5,171.5 c -11.2,6.8 -12.2,8 -9.3,10.9 0.7,0.7 1.8,1.3 2.4,1.3 1.1,0 19.7,-11.1 20.6,-12.4 0.9,-1.2 0.7,-3.6 -0.4,-4.7 -1.8,-1.8 -3.3,-1.2 -13.3,4.9 z"
         id="path13"
         style="opacity:1" /><path
         fill="#000000"
         d="m 135.9,169.6 c -1.3,0.7 -2.1,2.5 -1.7,4.1 0.2,0.7 3.4,3.9 8.7,8.6 6.7,6 8.6,7.4 9.7,7.4 2.4,0 4.2,-2.8 3.3,-5.3 -0.3,-0.8 -15.2,-14.2 -16.7,-15 -1.2,-0.5 -1.8,-0.5 -3.3,0.2 z"
         id="path14"
         style="opacity:1" /><path
         style="opacity:1;fill:#ffffff;fill-opacity:1;stroke:none;stroke-width:1.16714;stroke-linecap:round;stroke-linejoin:round;stroke-dashoffset:1.60327;paint-order:stroke fill markers"
         d="M 116.75271,6.4831122 C 98.302962,6.2115705 79.948408,11.126594 63.620024,19.591677 40.279231,31.662475 21.320377,52.331767 12.295067,77.106681 7.2915697,90.888631 5.1947401,105.85989 6.9215666,120.45264 c 0.5345967,4.79189 2.5727057,9.72927 6.8793984,12.29465 7.096054,4.76079 16.222023,5.8782 22.534379,11.8655 4.519773,4.86894 6.484939,11.4286 7.924607,17.76417 0.914705,3.74702 2.1993,7.58847 5.167068,10.23161 2.985915,3.24145 7.351619,4.9806 11.748495,4.74306 8.121092,0.15778 16.355321,-0.89532 24.379973,-0.20447 5.925119,0.74131 10.8142,4.45488 15.058503,8.39084 5.06095,4.49705 10.18813,9.78202 17.19389,10.89223 6.65582,1.08009 14.10297,0.50505 19.75183,-3.48753 5.78333,-4.33234 10.15972,-10.40817 16.38902,-14.1532 3.38939,-1.45481 7.12012,-1.0375 10.71953,-1.49663 5.58911,-0.57861 11.46749,-0.1889 16.76419,-2.32785 5.83551,-2.56088 10.66792,-7.72385 11.93129,-14.08329 1.88666,-6.45333 2.95813,-13.97524 8.64226,-18.37113 6.66959,-5.46554 15.29487,-7.86192 21.94454,-13.33268 3.89045,-3.23141 5.60426,-8.33605 5.49397,-13.28347 0.35488,-9.48824 -0.0615,-19.082189 -2.54946,-28.291917 C 220.21134,59.846133 201.00611,35.778598 176.2687,21.810571 158.55109,11.661426 138.14853,5.9462182 117.67069,6.4825118 c -0.30599,2.001e-4 -0.61198,4.003e-4 -0.91798,6.004e-4 z M 100.93486,17.986731 c 7.57756,1.296584 15.11482,2.967425 22.55609,4.958987 2.02278,1.19266 1.00816,5.22361 -1.54644,4.61158 -7.23721,-1.089392 -14.50033,-2.645521 -21.52171,-4.764174 -2.440452,-0.822193 -2.035212,-4.511076 0.51206,-4.806393 z m 47.99276,16.516285 c 1.59806,-0.04268 3.17928,1.156271 2.66044,2.914354 -0.5538,5.826937 -1.38394,11.847341 -2.7117,17.492762 -0.23689,1.697848 -2.23445,2.876779 -3.67431,1.699639 -1.83579,-0.729137 -0.6641,-3.043102 -0.81242,-4.452955 0.63156,-5.617628 1.09132,-11.329377 2.59107,-16.7883 0.39245,-0.656719 1.22684,-0.882254 1.94692,-0.8655 z m 29.79011,1.357659 c 2.11353,0.162914 2.45819,2.841164 3.51388,4.252715 2.23844,4.630312 5.01047,9.149447 6.23522,14.173099 -0.22449,2.269321 -4.20918,2.925901 -4.77682,0.467177 -2.74895,-5.196961 -5.78491,-10.450887 -7.49339,-16.083581 -0.72078,-1.86086 0.94201,-2.775556 2.52111,-2.80941 z m -70.91677,7.352233 c 1.74552,-0.08703 3.89691,2.282893 1.98794,3.606151 -4.14282,4.498309 -8.27464,9.128256 -13.073579,12.939685 -1.364703,0.620709 -3.18087,0.341595 -3.758145,-1.229189 -0.59224,-1.755691 1.472994,-3.12304 2.363285,-4.387324 3.631494,-3.616363 7.266329,-7.580509 11.493769,-10.661533 0.30062,-0.166313 0.63755,-0.293473 0.98673,-0.26779 z m -57.8661,3.960796 c 3.484558,1.126523 6.314213,3.716258 9.462424,5.530433 3.041941,2.207545 6.548992,3.913817 8.986915,6.767516 0.672663,1.814324 -1.278721,4.269713 -3.201448,3.060312 C 59.57325,59.716984 54.389908,56.012013 49.41115,52.15224 c -1.08188,-0.873269 -2.784814,-2.236347 -1.377978,-3.658271 0.412373,-0.65251 1.093389,-1.277579 1.901688,-1.320265 z m 67.9994,22.134498 c 6.56333,-0.128995 13.15861,0.90569 19.18214,3.643547 11.42197,4.649407 21.33696,15.31773 22.19542,28.105551 0.92344,11.11326 -5.56185,21.9254 -14.64958,27.94353 -5.62877,3.7622 -12.19007,6.60606 -18.92519,7.53145 -7.90209,0.31472 -16.06246,0.93054 -23.61522,-2.01117 -11.540918,-3.96656 -22.086753,-13.06593 -24.85188,-25.3337 -1.756873,-8.3162 0.366945,-17.285581 5.561172,-23.969074 6.438789,-8.412018 16.461863,-13.588307 26.722648,-15.422366 2.78091,-0.373498 5.52194,-0.479289 8.38049,-0.487768 z m 72.59469,3.188179 c 2.29302,0.307567 2.77495,3.93283 0.53739,4.762968 -5.27342,2.757524 -10.92572,4.847707 -16.52533,6.759348 -1.19149,0.431994 -2.80333,0.762534 -3.39807,-0.712304 -1.02034,-1.556156 0.15589,-3.505644 1.83671,-3.928983 5.50945,-2.586455 11.02902,-5.253926 16.9347,-6.847857 0.20317,-0.02883 0.40941,-0.04557 0.6146,-0.03317 z M 48.177322,84.82509 c 2.31979,0.0023 3.151135,3.586372 1.015984,4.616635 -5.056445,4.555842 -10.177918,9.058978 -15.807902,12.879145 -2.171806,1.34796 -4.737202,-2.625366 -2.57117,-4.05006 4.68362,-4.402441 9.636542,-8.546547 14.750903,-12.440291 0.779377,-0.518139 1.631536,-1.088136 2.612185,-1.005429 z m 137.432448,22.24065 c 6.68662,2.69895 12.93369,6.42705 19.05549,10.18698 1.54937,0.68211 2.61692,2.69549 1.31725,4.11821 -1.09442,1.97861 -3.58181,0.39768 -5.06333,-0.269 -5.83393,-3.1683 -11.87447,-6.1563 -17.08203,-10.31182 -1.12394,-1.35848 -0.0432,-3.80277 1.77262,-3.72437 z M 55.913148,118.96381 c 2.642251,0.20892 2.445538,3.38901 2.935394,5.2834 0.948024,6.16753 2.283295,12.31373 2.413218,18.55737 -0.06422,1.87124 -2.794164,2.19413 -4.070566,1.51267 -1.391526,-2.27363 -1.281739,-5.1774 -1.901274,-7.72907 -0.866849,-5.25087 -1.443244,-10.48868 -2.017904,-15.77998 0.57277,-0.92955 1.460583,-1.87208 2.641132,-1.84439 z m 115.743062,10.48131 c 1.44503,-0.0575 2.69723,1.29507 2.16011,2.74057 -0.99169,7.03634 -2.42352,14.04501 -4.42187,20.86497 -0.31317,2.12326 -3.44332,3.20818 -4.50905,1.05489 -0.88687,-2.00537 0.36804,-4.26484 0.51827,-6.32977 1.2804,-5.73539 2.29752,-11.63467 4.00345,-17.19797 0.42662,-0.8194 1.36022,-1.18758 2.24909,-1.13269 z m -70.32569,19.9433 c 1.55985,0.59104 1.59697,2.74858 0.95476,3.97165 -6.159241,4.39616 -12.659482,8.37244 -19.427017,11.76176 -1.368392,0.43733 -2.754483,-1.32306 -2.978889,-2.52412 0.958935,-2.23478 3.526337,-3.28224 5.387213,-4.70326 4.92384,-2.92928 9.622246,-6.45306 15.045233,-8.40531 0.33351,-0.073 0.67748,-0.10836 1.0187,-0.10072 z m 26.97527,3.39867 c 2.67179,1.40794 4.788,3.82509 7.15467,5.72034 3.28678,3.08189 6.89782,5.97923 9.67042,9.5167 0.2657,1.93457 -1.92931,4.174 -3.74367,2.70265 -5.3451,-3.92696 -10.16137,-8.56347 -14.90953,-13.18697 -1.07723,-0.89428 -2.02917,-2.3844 -0.90711,-3.66767 0.57489,-0.91986 1.74561,-1.08243 2.73522,-1.08505 z"
         id="path16"
         transform="translate(10.024832,17.383243)" /><path
         style="opacity:1;fill:#acacac;fill-opacity:1;stroke:none;stroke-width:1.16714;stroke-linecap:round;stroke-linejoin:round;stroke-dashoffset:1.60327;paint-order:stroke fill markers"
         d="m 224.62183,136.26598 c -5.35923,2.09404 -10.44436,4.9162 -15.48251,7.69783 -3.81693,2.56819 -7.44829,6.096 -8.35404,10.79192 -1.64591,6.29864 -2.90211,13.076 -7.48552,18.03317 -4.62198,5.59729 -11.74929,8.59707 -18.90809,8.94359 -6.05204,0.78924 -12.43458,0.14985 -18.32894,2.05581 -3.72462,1.85839 -6.07685,5.55918 -9.17371,8.23643 -5.27136,5.17381 -12.05927,9.53388 -19.63269,9.85404 -7.18553,0.34592 -15.12501,-0.3721 -21.23899,-4.87998 -6.637603,-4.60415 -11.642696,-11.66719 -19.393697,-14.54765 -10.271501,-0.14117 -20.726164,0.17504 -30.868517,-0.33172 -7.692349,-1.435 -13.713083,-8.05399 -15.788299,-15.34439 -2.157841,-6.7941 -3.000931,-14.79781 -8.882991,-19.6146 -5.249763,-3.75813 -11.686091,-5.20127 -17.42397,-8.01303 -1.16228,-0.98633 -2.933894,0.0936 -2.380614,1.56913 2.156914,6.99003 5.544251,13.55713 9.01177,19.9787 14.155656,24.21654 38.449552,41.80373 65.235839,49.55497 10.630883,3.08784 21.725339,4.60003 32.797619,4.20906 8.15395,0.11196 16.34385,-0.33314 24.3046,-2.21664 31.12396,-6.54707 59.60439,-26.45034 74.9117,-54.53766 3.48222,-6.40609 6.28004,-13.2074 8.3971,-20.1742 0.0696,-0.72273 -0.59722,-1.36124 -1.31605,-1.26478 z"
         id="path17"
         transform="translate(10.024832,17.383243)" /></g></g></g>&#10;</svg>
